<svg width="1160" height="1160" viewBox="0 0 1160 1160" fill="none" xmlns="http://www.w3.org/2000/svg">
<path d="M741.079 811.829C674.785 877.053 572.289 865.94 529.328 852.231L427.281 484.416C464.823 533.98 666.625 494.709 711.112 447.867L741.079 811.829Z" fill="#D9D9D9"/>
<path d="M471.032 383.902C458.375 364.583 434.866 318.768 457.982 277.991C445.837 278.702 259.12 280.25 314.532 138.902C373.532 -11.598 805.532 50.902 797.032 178.402C788.532 305.902 598.032 286.402 542.032 289.402C497.232 291.802 476.032 353.402 471.032 383.902Z" fill="white"/>
<path d="M471.032 383.902C458.366 364.569 434.832 318.702 458.032 277.902C471.032 277.902 255.532 289.402 314.532 138.902C373.532 -11.598 805.532 50.902 797.032 178.402C788.532 305.902 598.032 286.402 542.032 289.402C497.232 291.802 476.032 353.402 471.032 383.902Z" stroke="black" stroke-width="8" stroke-linecap="round"/>
<ellipse cx="812.281" cy="1065.5" rx="347" ry="57.5" fill="#A3A3A3"/>
<ellipse cx="552.781" cy="1123" rx="84.5" ry="37" fill="#A3A3A3"/>
<path d="M463.317 623.097C386.15 653.017 161.992 767.414 313.736 765.765L344.068 765.336" stroke="black" stroke-width="8"/>
<path d="M162.254 397.453L238.987 363.275L516.881 987.185L478.515 1004.27L440.149 1021.36L162.254 397.453Z" fill="#D9D9D9" stroke="black" stroke-width="7"/>
<path d="M162.254 397.453L238.987 363.275L516.881 987.185L478.515 1004.27L440.149 1021.36L162.254 397.453Z" stroke="black" stroke-width="7"/>
<path d="M456.478 1005.4C444.772 1005.7 277.494 598.047 195.318 394.181L165.716 399.05L446.565 1028.31C454.747 1020.55 468.184 1005.1 456.478 1005.4Z" fill="white"/>
<path d="M518.045 989.45C519.439 992.582 518.205 997.802 512.354 1004.36C506.742 1010.65 497.727 1017.11 486.595 1022.07C475.463 1027.03 464.631 1029.41 456.201 1029.37C447.413 1029.33 442.707 1026.76 441.312 1023.63C439.917 1020.5 441.151 1015.28 447.002 1008.72C452.614 1002.43 461.629 995.968 472.761 991.01C483.893 986.052 494.725 983.671 503.155 983.707C511.944 983.745 516.65 986.319 518.045 989.45Z" fill="#ACACAC" stroke="black" stroke-width="7"/>
<path d="M236.952 358.708C238.347 361.839 237.113 367.06 231.262 373.618C225.65 379.908 216.635 386.368 205.503 391.326C194.371 396.284 183.539 398.665 175.109 398.629C166.32 398.591 161.614 396.017 160.22 392.885C158.825 389.754 160.059 384.534 165.91 377.975C171.522 371.685 180.537 365.226 191.669 360.267C202.801 355.309 213.633 352.928 222.063 352.964C230.851 353.002 235.557 355.576 236.952 358.708Z" fill="white" stroke="black" stroke-width="7"/>
<path d="M764.407 317.176C751.837 322.081 769.375 364.835 779.715 385.599C752.466 404.776 762.145 414.331 762.363 427.977C762.537 438.894 783.064 447.037 793.305 449.744C791.966 461.315 797.218 465.315 800.011 465.869C823.309 470.075 843.57 458.843 850.252 455.139L850.423 455.044C855.624 452.162 852.337 444.088 850.043 440.412C865.252 431.83 869.701 408.971 870.025 398.615C877.357 390.822 876.059 382.928 873.543 367.633C871.531 355.397 853.695 359.919 845.028 363.709C843.8 361.377 841.166 355.629 840.451 351.287C839.559 345.86 871.187 316.335 843.178 306.247C820.771 298.177 808.942 338.397 805.828 359.515C797.259 343.358 776.978 312.271 764.407 317.176Z" fill="white"/>
<path d="M712.126 433.706C712.951 438.722 710.794 444.63 704.732 451.265C698.709 457.857 689.286 464.629 676.972 471.114C652.382 484.065 617.084 495.449 576.926 502.054C536.769 508.659 499.684 509.18 472.242 504.787C458.499 502.587 447.404 499.19 439.586 494.875C431.718 490.531 427.783 485.625 426.958 480.609C426.133 475.593 428.29 469.685 434.352 463.05C440.375 456.458 449.798 449.686 462.112 443.201C486.702 430.25 522 418.866 562.158 412.261C602.315 405.656 639.4 405.135 666.842 409.528C680.585 411.728 691.68 415.125 699.498 419.44C707.366 423.784 711.301 428.69 712.126 433.706Z" stroke="black" stroke-width="8"/>
<path d="M529.654 852.371C572.615 866.08 675.111 877.193 741.404 811.969L711.438 448.007C666.95 494.848 465.149 534.12 427.607 484.556L494.281 725" stroke="black" stroke-width="8"/>
<path d="M403.685 755.024C406.987 775.097 395.408 792.869 378.939 795.578C362.469 798.287 345.809 785.159 342.507 765.086C339.206 745.014 350.784 727.241 367.254 724.533C383.723 721.824 400.384 734.952 403.685 755.024Z" fill="white" stroke="black" stroke-width="7"/>
<path d="M852.816 445.968C858.486 459.785 825.405 467.495 805.995 466.527C790.466 465.753 793.443 454.473 794.574 449.875C784.433 447.887 763.063 442.35 760.46 419.18C757.857 396.009 778.2 384.746 788.697 382.011C797.271 381.357 814.72 383.253 815.921 396.065C817.122 408.877 801.373 415.476 793.348 417.174M841.064 443.363C849.193 440.765 866.67 431.512 869.611 403.496L856.013 405.733C887.253 400.595 883.439 342.981 843.042 365.887M805.853 376.164C828.209 339.963 873.295 398.352 828.267 409.162" stroke="black" stroke-width="8" stroke-linecap="round"/>
<path d="M806.411 364.534C806.96 343.391 815.625 302.131 845.65 304.756C853.117 306.553 857.748 319.558 850.374 333.478C846.402 339.93 839.106 354.013 841.694 358.731" stroke="black" stroke-width="8" stroke-linecap="round"/>
<path d="M777.053 378.817C769.673 362.256 751.485 329.396 763.017 318.725C774.549 308.054 799.65 344.846 806.411 364.534" stroke="black" stroke-width="8" stroke-linecap="round"/>
<path d="M825.985 466.664C838.031 522.449 831.211 590.863 722.981 585.963" stroke="black" stroke-width="8"/>
<path d="M675.036 649.081L579.045 664.869C576.576 665.275 575.652 668.339 577.498 670.029C598.823 689.556 634.674 722.112 637.118 723.218C639.573 724.329 663.938 680.081 678.168 653.436C679.337 651.247 677.485 648.678 675.036 649.081Z" fill="white" stroke="black" stroke-width="8"/>
<ellipse cx="557.756" cy="625.806" rx="8.5" ry="9" transform="rotate(-9.34008 557.756 625.806)" fill="black"/>
<ellipse cx="661.364" cy="608.765" rx="8.5" ry="9" transform="rotate(-9.34008 661.364 608.765)" fill="black"/>
<path d="M584.873 861.531C605.684 905.908 666.124 990.149 741.392 972.094" stroke="black" stroke-width="8" stroke-linecap="round"/>
<path d="M726.983 829.036C748.583 850.481 813.093 884.294 898.329 847.979" stroke="black" stroke-width="8" stroke-linecap="round"/>
<path d="M853.016 1028.46C831.275 1047.24 805.152 1039.37 798.252 1037.47C747.434 1045.83 723.1 931.764 770.553 923.959C775.844 881.741 806.989 871.855 832.599 888.925C858.209 905.995 874.757 1009.68 853.016 1028.46Z" fill="#BDBDBD"/>
<path d="M798.252 1037.47C805.152 1039.37 831.275 1047.24 853.016 1028.46C874.757 1009.68 858.209 905.995 832.599 888.925C806.989 871.855 775.844 881.741 770.553 923.959M798.252 1037.47C787.996 1018.97 764.185 982.36 770.553 923.959M798.252 1037.47C747.434 1045.83 723.1 931.764 770.553 923.959" stroke="black" stroke-width="8" stroke-linecap="round"/>
<path d="M430.392 489.165C438.036 495.48 465.957 507.712 518.057 508.419C520.517 506.936 523.169 507.091 525.785 508.439C523.152 508.461 520.576 508.453 518.057 508.419C502.292 517.925 494.415 594.709 554.553 855.876L530.56 851.715L430.392 489.165Z" fill="white"/>
<path d="M427.607 484.556C465.149 534.12 666.95 494.848 711.438 448.007L741.404 811.969C675.111 877.193 572.615 866.08 529.654 852.371" stroke="black" stroke-width="8"/>
<path d="M321.792 765.453L344.068 765.336" stroke="black" stroke-width="8"/>
<path d="M860.524 960.101C866.709 997.703 865.309 1029.24 836.693 1033.95C808.078 1038.65 796.65 1009.23 790.466 971.623C784.281 934.021 790.135 895.67 821.71 890.477C848.352 886.095 854.34 922.498 860.524 960.101Z" fill="white"/>
<path d="M804.796 920.115L835.385 915.084" stroke="#D9D9D9" stroke-width="8" stroke-linecap="round"/>
<path d="M802.534 940.249L839.537 934.163" stroke="#D9D9D9" stroke-width="8" stroke-linecap="round"/>
<path d="M804.793 960.146L846.236 953.33" stroke="#D9D9D9" stroke-width="8" stroke-linecap="round"/>
<path d="M849.31 999.93C842.27 963.955 811.983 971.66 816.319 1005.36C816.46 1006.46 817.497 1007.22 818.587 1007.04L847.695 1002.25C848.785 1002.07 849.522 1001.01 849.31 999.93Z" stroke="#D9D9D9" stroke-width="8" stroke-linecap="round"/>
<path d="M860.524 960.101C866.709 997.703 865.309 1029.24 836.693 1033.95C808.078 1038.65 796.65 1009.23 790.466 971.623C784.281 934.021 790.135 895.67 821.71 890.477C848.352 886.095 854.34 922.498 860.524 960.101Z" fill="white"/>
<path d="M804.796 920.115L835.385 915.084" stroke="#D9D9D9" stroke-width="8" stroke-linecap="round"/>
<path d="M802.534 940.249L839.537 934.163" stroke="#D9D9D9" stroke-width="8" stroke-linecap="round"/>
<path d="M804.793 960.146L846.236 953.33" stroke="#D9D9D9" stroke-width="8" stroke-linecap="round"/>
<path d="M849.31 999.93C842.27 963.955 811.983 971.66 816.319 1005.36C816.46 1006.46 817.497 1007.22 818.587 1007.04L847.695 1002.25C848.785 1002.07 849.522 1001.01 849.31 999.93Z" stroke="#D9D9D9" stroke-width="8" stroke-linecap="round"/>
<path d="M751.234 997.478C751.193 997.437 751.155 997.394 751.119 997.35C750.92 997.105 750.969 997.164 751.234 997.478C754.129 1000.38 770.488 996.871 774.09 979.891C777.488 1001.86 781.43 1014.27 795.919 1035.59C787.206 1040.13 754.349 1001.17 751.234 997.478Z" fill="#818181"/>
<path d="M751.119 997.35C753.661 1000.48 770.437 997.112 774.09 979.891C777.488 1001.86 781.43 1014.27 795.919 1035.59C786.464 1040.52 748.578 994.221 751.119 997.35Z" stroke="#818181" stroke-width="8" stroke-linecap="round"/>
<path d="M798.252 1037.47C805.152 1039.37 831.275 1047.24 853.016 1028.46C874.757 1009.68 858.209 905.995 832.599 888.925C806.989 871.855 775.844 881.741 770.553 923.959M798.252 1037.47C787.996 1018.97 764.185 982.36 770.553 923.959M798.252 1037.47C747.434 1045.83 723.1 931.764 770.553 923.959" stroke="black" stroke-width="8" stroke-linecap="round"/>
<path d="M1007.36 888.558C985.616 907.336 959.493 899.471 952.592 897.566C901.775 905.924 877.441 791.861 924.894 784.056C930.185 741.838 961.33 731.952 986.94 749.022C1012.55 766.092 1029.1 869.781 1007.36 888.558Z" fill="#BDBDBD"/>
<path d="M952.592 897.566C959.493 899.471 985.616 907.336 1007.36 888.558C1029.1 869.781 1012.55 766.092 986.94 749.022C961.33 731.952 930.185 741.838 924.894 784.056M952.592 897.566C942.336 879.068 918.526 842.456 924.894 784.056M952.592 897.566C901.775 905.924 877.441 791.861 924.894 784.056" stroke="black" stroke-width="8" stroke-linecap="round"/>
<path d="M1014.87 820.197C1021.05 857.8 1019.65 889.337 991.034 894.044C962.419 898.75 950.991 869.323 944.806 831.72C938.622 794.118 944.475 755.767 976.051 750.574C1002.69 746.192 1008.68 782.595 1014.87 820.197Z" fill="white"/>
<path d="M959.137 780.212L989.726 775.18" stroke="#D9D9D9" stroke-width="8" stroke-linecap="round"/>
<path d="M956.875 800.346L993.877 794.26" stroke="#D9D9D9" stroke-width="8" stroke-linecap="round"/>
<path d="M959.134 820.243L1000.58 813.426" stroke="#D9D9D9" stroke-width="8" stroke-linecap="round"/>
<path d="M1003.65 860.027C996.611 824.052 966.324 831.757 970.66 865.46C970.801 866.555 971.837 867.316 972.927 867.137L1002.04 862.349C1003.13 862.17 1003.86 861.111 1003.65 860.027Z" stroke="#D9D9D9" stroke-width="8" stroke-linecap="round"/>
<path d="M900.361 820.282C905.244 830.458 917.464 848.48 927.282 839.163C933.102 856.324 943.723 886.384 947.967 894.339C949.303 894.064 949.943 894.236 949.766 895.764C949.637 896.884 948.986 896.248 947.967 894.339C942.983 895.365 928.319 902.617 910.368 868.801C906.226 857.997 898.426 833.167 900.361 820.282Z" fill="#818181"/>
<path d="M900.361 820.282C905.244 830.458 917.464 848.48 927.282 839.163C934.498 860.441 949.096 901.55 949.766 895.764C950.604 888.533 933.128 911.676 910.368 868.801C906.226 857.997 898.426 833.167 900.361 820.282Z" stroke="#818181" stroke-width="8" stroke-linecap="round"/>
<path d="M952.592 897.566C959.493 899.471 985.616 907.336 1007.36 888.558C1029.1 869.781 1012.55 766.092 986.94 749.022C961.33 731.952 930.185 741.838 924.894 784.056M952.592 897.566C942.336 879.068 918.526 842.456 924.894 784.056M952.592 897.566C901.775 905.924 877.441 791.861 924.894 784.056" stroke="black" stroke-width="8" stroke-linecap="round"/>
<path d="M547.772 451.111C548.278 454.186 546.562 458.199 541.456 462.214C536.478 466.129 528.975 469.404 520.111 470.862C511.246 472.32 503.09 471.62 497.12 469.506C490.998 467.338 488.087 464.086 487.581 461.01C487.075 457.935 488.791 453.922 493.897 449.907C498.874 445.992 506.378 442.717 515.242 441.259C524.106 439.801 532.263 440.501 538.232 442.615C544.355 444.783 547.266 448.035 547.772 451.111Z" fill="black" stroke="black" stroke-width="8"/>
<path d="M793.539 417.275C800.527 416.633 813.867 413.324 815.267 404.581C816.666 395.838 814.461 409.95 812.605 419.207L793.539 417.275Z" stroke="#9E9E9E" stroke-width="8" stroke-linecap="round"/>
<path d="M852.816 445.968C858.486 459.785 825.405 467.495 805.995 466.527C790.466 465.753 793.443 454.473 794.574 449.875C784.433 447.887 763.063 442.35 760.46 419.18C757.857 396.009 778.2 384.746 788.697 382.011C797.271 381.357 814.72 383.253 815.921 396.065C817.122 408.877 801.373 415.476 793.348 417.174M841.064 443.363C849.193 440.765 866.67 431.512 869.611 403.496L856.013 405.733C887.253 400.595 883.439 342.981 843.042 365.887M805.853 376.164C828.209 339.963 873.295 398.352 828.267 409.162" stroke="black" stroke-width="8" stroke-linecap="round"/>
<path d="M806.411 364.534C806.96 343.391 815.625 302.131 845.65 304.756C853.117 306.553 857.748 319.558 850.374 333.478C846.402 339.93 839.106 354.013 841.694 358.731" stroke="black" stroke-width="8" stroke-linecap="round"/>
<path d="M777.053 378.817C769.673 362.256 751.485 329.396 763.017 318.725C774.549 308.054 799.65 344.846 806.411 364.534" stroke="black" stroke-width="8" stroke-linecap="round"/>
<path d="M870.783 582.004C873.968 581.714 872.135 596.938 877.4 603.17C882.665 609.402 895.281 607.812 895.281 611.002C895.281 614.192 882.665 612.602 877.4 618.834C872.135 625.066 873.723 640 870.783 640C867.843 640 868.088 624.341 863.188 618.834C858.289 613.327 846.53 614.192 846.285 611.002C846.04 607.812 858.901 609.402 864.166 603.17C869.431 596.938 867.598 582.294 870.783 582.004Z" fill="#FF0000"/>
<path d="M958.783 635.003C961.447 634.768 959.914 647.105 964.319 652.155C968.725 657.205 979.281 655.917 979.281 658.502C979.281 661.086 968.725 659.798 964.319 664.848C959.914 669.899 961.242 682 958.783 682C956.323 682 956.528 669.311 952.428 664.848C948.328 660.386 938.489 661.086 938.284 658.502C938.079 655.917 948.841 657.205 953.246 652.155C957.652 647.105 956.118 635.238 958.783 635.003Z" fill="#FF7A00"/>
<path d="M946.784 498.006C951.788 497.586 948.908 519.634 957.182 528.66C965.455 537.686 985.281 535.383 985.281 540.003C985.281 544.623 965.455 542.32 957.182 551.346C948.908 560.372 951.404 582 946.784 582C942.164 582 942.549 559.322 934.85 551.346C927.15 543.37 908.672 544.623 908.287 540.003C907.902 535.383 928.112 537.686 936.386 528.66C944.66 519.634 941.779 498.426 946.784 498.006Z" fill="#FFCA0F"/>
<path d="M375.785 17.0087C382.479 16.3888 378.626 48.9361 389.693 62.2599C400.761 75.5837 427.281 72.1848 427.281 79.0044C427.281 85.8239 400.761 82.425 389.693 95.7488C378.626 109.073 381.964 141 375.785 141C369.605 141 370.12 107.522 359.821 95.7488C349.522 83.9753 324.803 85.8239 324.288 79.0044C323.773 72.1848 350.809 75.5837 361.876 62.2599C372.943 48.9361 369.09 17.6287 375.785 17.0087Z" fill="#898989"/>
<path d="M451.283 0.00556461C455.443 -0.389408 453.049 20.3464 459.926 28.8349C466.802 37.3235 483.281 35.1581 483.281 39.5028C483.281 43.8475 466.802 41.6821 459.926 50.1706C453.049 58.6592 455.123 79 451.283 79C447.444 79 447.764 57.6715 441.364 50.1706C434.965 42.6697 419.606 43.8475 419.286 39.5028C418.966 35.1581 435.764 37.3235 442.641 28.8349C449.518 20.3464 447.124 0.400537 451.283 0.00556461Z" fill="#C4C4C4"/>
<path d="M504.781 767L532.781 852" stroke="black" stroke-width="8" stroke-linecap="round"/>
<path d="M529.654 852.371C572.615 866.08 675.111 877.193 741.404 811.969L711.438 448.007C666.95 494.848 465.149 534.12 427.607 484.556L494.281 725" stroke="black" stroke-width="8"/>
<path d="M385.72 153C385.72 150.733 386.173 148.76 387.08 147.08C387.987 145.373 389.24 144.053 390.84 143.12C392.467 142.187 394.32 141.72 396.4 141.72C399.093 141.72 401.307 142.373 403.04 143.68C404.8 144.987 405.96 146.8 406.52 149.12H402.6C402.227 147.787 401.493 146.733 400.4 145.96C399.333 145.187 398 144.8 396.4 144.8C394.32 144.8 392.64 145.52 391.36 146.96C390.08 148.373 389.44 150.387 389.44 153C389.44 155.64 390.08 157.68 391.36 159.12C392.64 160.56 394.32 161.28 396.4 161.28C398 161.28 399.333 160.907 400.4 160.16C401.467 159.413 402.2 158.347 402.6 156.96H406.52C405.933 159.2 404.76 161 403 162.36C401.24 163.693 399.04 164.36 396.4 164.36C394.32 164.36 392.467 163.893 390.84 162.96C389.24 162.027 387.987 160.707 387.08 159C386.173 157.293 385.72 155.293 385.72 153ZM420.937 164.36C418.884 164.36 417.017 163.893 415.337 162.96C413.684 162.027 412.377 160.707 411.417 159C410.484 157.267 410.017 155.267 410.017 153C410.017 150.76 410.497 148.787 411.457 147.08C412.444 145.347 413.777 144.027 415.457 143.12C417.137 142.187 419.017 141.72 421.097 141.72C423.177 141.72 425.057 142.187 426.737 143.12C428.417 144.027 429.737 145.333 430.697 147.04C431.684 148.747 432.177 150.733 432.177 153C432.177 155.267 431.67 157.267 430.657 159C429.67 160.707 428.324 162.027 426.617 162.96C424.91 163.893 423.017 164.36 420.937 164.36ZM420.937 161.16C422.244 161.16 423.47 160.853 424.617 160.24C425.764 159.627 426.684 158.707 427.377 157.48C428.097 156.253 428.457 154.76 428.457 153C428.457 151.24 428.11 149.747 427.417 148.52C426.724 147.293 425.817 146.387 424.697 145.8C423.577 145.187 422.364 144.88 421.057 144.88C419.724 144.88 418.497 145.187 417.377 145.8C416.284 146.387 415.404 147.293 414.737 148.52C414.07 149.747 413.737 151.24 413.737 153C413.737 154.787 414.057 156.293 414.697 157.52C415.364 158.747 416.244 159.667 417.337 160.28C418.43 160.867 419.63 161.16 420.937 161.16ZM463.323 141.68C465.029 141.68 466.549 142.04 467.883 142.76C469.216 143.453 470.269 144.507 471.043 145.92C471.816 147.333 472.203 149.053 472.203 151.08V164H468.603V151.6C468.603 149.413 468.056 147.747 466.963 146.6C465.896 145.427 464.443 144.84 462.603 144.84C460.709 144.84 459.203 145.453 458.083 146.68C456.963 147.88 456.403 149.627 456.403 151.92V164H452.803V151.6C452.803 149.413 452.256 147.747 451.163 146.6C450.096 145.427 448.643 144.84 446.803 144.84C444.909 144.84 443.403 145.453 442.283 146.68C441.163 147.88 440.603 149.627 440.603 151.92V164H436.963V142.08H440.603V145.24C441.323 144.093 442.283 143.213 443.483 142.6C444.709 141.987 446.056 141.68 447.523 141.68C449.363 141.68 450.989 142.093 452.403 142.92C453.816 143.747 454.869 144.96 455.563 146.56C456.176 145.013 457.189 143.813 458.603 142.96C460.016 142.107 461.589 141.68 463.323 141.68ZM498.174 152.2C498.174 152.893 498.134 153.627 498.054 154.4H480.534C480.667 156.56 481.4 158.253 482.734 159.48C484.094 160.68 485.734 161.28 487.654 161.28C489.227 161.28 490.534 160.92 491.574 160.2C492.64 159.453 493.387 158.467 493.814 157.24H497.734C497.147 159.347 495.974 161.067 494.214 162.4C492.454 163.707 490.267 164.36 487.654 164.36C485.574 164.36 483.707 163.893 482.054 162.96C480.427 162.027 479.147 160.707 478.214 159C477.28 157.267 476.814 155.267 476.814 153C476.814 150.733 477.267 148.747 478.174 147.04C479.08 145.333 480.347 144.027 481.974 143.12C483.627 142.187 485.52 141.72 487.654 141.72C489.734 141.72 491.574 142.173 493.174 143.08C494.774 143.987 496 145.24 496.854 146.84C497.734 148.413 498.174 150.2 498.174 152.2ZM494.414 151.44C494.414 150.053 494.107 148.867 493.494 147.88C492.88 146.867 492.04 146.107 490.974 145.6C489.934 145.067 488.774 144.8 487.494 144.8C485.654 144.8 484.08 145.387 482.774 146.56C481.494 147.733 480.76 149.36 480.574 151.44H494.414ZM517.283 146.16C518.029 144.853 519.123 143.787 520.562 142.96C522.003 142.133 523.643 141.72 525.483 141.72C527.456 141.72 529.229 142.187 530.803 143.12C532.376 144.053 533.616 145.373 534.523 147.08C535.429 148.76 535.883 150.72 535.883 152.96C535.883 155.173 535.429 157.147 534.523 158.88C533.616 160.613 532.362 161.96 530.762 162.92C529.189 163.88 527.429 164.36 525.483 164.36C523.589 164.36 521.923 163.947 520.483 163.12C519.069 162.293 518.003 161.24 517.283 159.96V164H513.643V134.4H517.283V146.16ZM532.163 152.96C532.163 151.307 531.829 149.867 531.163 148.64C530.496 147.413 529.589 146.48 528.443 145.84C527.323 145.2 526.083 144.88 524.723 144.88C523.389 144.88 522.149 145.213 521.003 145.88C519.883 146.52 518.976 147.467 518.283 148.72C517.616 149.947 517.283 151.373 517.283 153C517.283 154.653 517.616 156.107 518.283 157.36C518.976 158.587 519.883 159.533 521.003 160.2C522.149 160.84 523.389 161.16 524.723 161.16C526.083 161.16 527.323 160.84 528.443 160.2C529.589 159.533 530.496 158.587 531.163 157.36C531.829 156.107 532.163 154.64 532.163 152.96ZM539.314 152.96C539.314 150.72 539.767 148.76 540.674 147.08C541.58 145.373 542.82 144.053 544.394 143.12C545.994 142.187 547.767 141.72 549.714 141.72C551.634 141.72 553.3 142.133 554.714 142.96C556.127 143.787 557.18 144.827 557.874 146.08V142.08H561.554V164H557.874V159.92C557.154 161.2 556.074 162.267 554.634 163.12C553.22 163.947 551.567 164.36 549.674 164.36C547.727 164.36 545.967 163.88 544.394 162.92C542.82 161.96 541.58 160.613 540.674 158.88C539.767 157.147 539.314 155.173 539.314 152.96ZM557.874 153C557.874 151.347 557.54 149.907 556.874 148.68C556.207 147.453 555.3 146.52 554.154 145.88C553.034 145.213 551.794 144.88 550.434 144.88C549.074 144.88 547.834 145.2 546.714 145.84C545.594 146.48 544.7 147.413 544.034 148.64C543.367 149.867 543.034 151.307 543.034 152.96C543.034 154.64 543.367 156.107 544.034 157.36C544.7 158.587 545.594 159.533 546.714 160.2C547.834 160.84 549.074 161.16 550.434 161.16C551.794 161.16 553.034 160.84 554.154 160.2C555.3 159.533 556.207 158.587 556.874 157.36C557.54 156.107 557.874 154.653 557.874 153ZM566.345 153C566.345 150.733 566.798 148.76 567.705 147.08C568.612 145.373 569.865 144.053 571.465 143.12C573.092 142.187 574.945 141.72 577.025 141.72C579.718 141.72 581.932 142.373 583.665 143.68C585.425 144.987 586.585 146.8 587.145 149.12H583.225C582.852 147.787 582.118 146.733 581.025 145.96C579.958 145.187 578.625 144.8 577.025 144.8C574.945 144.8 573.265 145.52 571.985 146.96C570.705 148.373 570.065 150.387 570.065 153C570.065 155.64 570.705 157.68 571.985 159.12C573.265 160.56 574.945 161.28 577.025 161.28C578.625 161.28 579.958 160.907 581.025 160.16C582.092 159.413 582.825 158.347 583.225 156.96H587.145C586.558 159.2 585.385 161 583.625 162.36C581.865 163.693 579.665 164.36 577.025 164.36C574.945 164.36 573.092 163.893 571.465 162.96C569.865 162.027 568.612 160.707 567.705 159C566.798 157.293 566.345 155.293 566.345 153ZM604.242 164L595.642 154.32V164H592.002V134.4H595.642V151.8L604.082 142.08H609.162L598.842 153L609.202 164H604.242ZM632.812 164.36C630.759 164.36 628.892 163.893 627.212 162.96C625.559 162.027 624.252 160.707 623.292 159C622.359 157.267 621.892 155.267 621.892 153C621.892 150.76 622.372 148.787 623.332 147.08C624.319 145.347 625.652 144.027 627.332 143.12C629.012 142.187 630.892 141.72 632.972 141.72C635.052 141.72 636.932 142.187 638.612 143.12C640.292 144.027 641.612 145.333 642.572 147.04C643.559 148.747 644.052 150.733 644.052 153C644.052 155.267 643.545 157.267 642.532 159C641.545 160.707 640.199 162.027 638.492 162.96C636.785 163.893 634.892 164.36 632.812 164.36ZM632.812 161.16C634.119 161.16 635.345 160.853 636.492 160.24C637.639 159.627 638.559 158.707 639.252 157.48C639.972 156.253 640.332 154.76 640.332 153C640.332 151.24 639.985 149.747 639.292 148.52C638.599 147.293 637.692 146.387 636.572 145.8C635.452 145.187 634.239 144.88 632.932 144.88C631.599 144.88 630.372 145.187 629.252 145.8C628.159 146.387 627.279 147.293 626.612 148.52C625.945 149.747 625.612 151.24 625.612 153C625.612 154.787 625.932 156.293 626.572 157.52C627.239 158.747 628.119 159.667 629.212 160.28C630.305 160.867 631.505 161.16 632.812 161.16ZM659.518 141.68C662.184 141.68 664.344 142.493 665.998 144.12C667.651 145.72 668.478 148.04 668.478 151.08V164H664.878V151.6C664.878 149.413 664.331 147.747 663.238 146.6C662.144 145.427 660.651 144.84 658.758 144.84C656.838 144.84 655.304 145.44 654.158 146.64C653.038 147.84 652.478 149.587 652.478 151.88V164H648.838V142.08H652.478V145.2C653.198 144.08 654.171 143.213 655.398 142.6C656.651 141.987 658.024 141.68 659.518 141.68ZM673.064 153C673.064 150.733 673.517 148.76 674.424 147.08C675.33 145.373 676.584 144.053 678.184 143.12C679.81 142.187 681.664 141.72 683.744 141.72C686.437 141.72 688.65 142.373 690.384 143.68C692.144 144.987 693.304 146.8 693.864 149.12H689.944C689.57 147.787 688.837 146.733 687.744 145.96C686.677 145.187 685.344 144.8 683.744 144.8C681.664 144.8 679.984 145.52 678.704 146.96C677.424 148.373 676.784 150.387 676.784 153C676.784 155.64 677.424 157.68 678.704 159.12C679.984 160.56 681.664 161.28 683.744 161.28C685.344 161.28 686.677 160.907 687.744 160.16C688.81 159.413 689.544 158.347 689.944 156.96H693.864C693.277 159.2 692.104 161 690.344 162.36C688.584 163.693 686.384 164.36 683.744 164.36C681.664 164.36 679.81 163.893 678.184 162.96C676.584 162.027 675.33 160.707 674.424 159C673.517 157.293 673.064 155.293 673.064 153ZM718.721 152.2C718.721 152.893 718.681 153.627 718.601 154.4H701.081C701.214 156.56 701.947 158.253 703.281 159.48C704.641 160.68 706.281 161.28 708.201 161.28C709.774 161.28 711.081 160.92 712.121 160.2C713.187 159.453 713.934 158.467 714.361 157.24H718.281C717.694 159.347 716.521 161.067 714.761 162.4C713.001 163.707 710.814 164.36 708.201 164.36C706.121 164.36 704.254 163.893 702.601 162.96C700.974 162.027 699.694 160.707 698.761 159C697.827 157.267 697.361 155.267 697.361 153C697.361 150.733 697.814 148.747 698.721 147.04C699.627 145.333 700.894 144.027 702.521 143.12C704.174 142.187 706.067 141.72 708.201 141.72C710.281 141.72 712.121 142.173 713.721 143.08C715.321 143.987 716.547 145.24 717.401 146.84C718.281 148.413 718.721 150.2 718.721 152.2ZM714.961 151.44C714.961 150.053 714.654 148.867 714.041 147.88C713.427 146.867 712.587 146.107 711.521 145.6C710.481 145.067 709.321 144.8 708.041 144.8C706.201 144.8 704.627 145.387 703.321 146.56C702.041 147.733 701.307 149.36 701.121 151.44H714.961ZM391.52 205.08V218C391.52 219.067 391.747 219.827 392.2 220.28C392.653 220.707 393.44 220.92 394.56 220.92H397.24V224H393.96C391.933 224 390.413 223.533 389.4 222.6C388.387 221.667 387.88 220.133 387.88 218V205.08H385.04V202.08H387.88V196.56H391.52V202.08H397.24V205.08H391.52ZM412.53 201.68C414.184 201.68 415.677 202.04 417.01 202.76C418.344 203.453 419.384 204.507 420.13 205.92C420.904 207.333 421.29 209.053 421.29 211.08V224H417.69V211.6C417.69 209.413 417.144 207.747 416.05 206.6C414.957 205.427 413.464 204.84 411.57 204.84C409.65 204.84 408.117 205.44 406.97 206.64C405.85 207.84 405.29 209.587 405.29 211.88V224H401.65V194.4H405.29V205.2C406.01 204.08 406.997 203.213 408.25 202.6C409.53 201.987 410.957 201.68 412.53 201.68ZM429.116 198.52C428.423 198.52 427.836 198.28 427.356 197.8C426.876 197.32 426.636 196.733 426.636 196.04C426.636 195.347 426.876 194.76 427.356 194.28C427.836 193.8 428.423 193.56 429.116 193.56C429.783 193.56 430.343 193.8 430.796 194.28C431.276 194.76 431.516 195.347 431.516 196.04C431.516 196.733 431.276 197.32 430.796 197.8C430.343 198.28 429.783 198.52 429.116 198.52ZM430.876 202.08V224H427.236V202.08H430.876ZM444.84 224.36C443.16 224.36 441.653 224.08 440.32 223.52C438.987 222.933 437.933 222.133 437.16 221.12C436.387 220.08 435.96 218.893 435.88 217.56H439.64C439.747 218.653 440.253 219.547 441.16 220.24C442.093 220.933 443.307 221.28 444.8 221.28C446.187 221.28 447.28 220.973 448.08 220.36C448.88 219.747 449.28 218.973 449.28 218.04C449.28 217.08 448.853 216.373 448 215.92C447.147 215.44 445.827 214.973 444.04 214.52C442.413 214.093 441.08 213.667 440.04 213.24C439.027 212.787 438.147 212.133 437.4 211.28C436.68 210.4 436.32 209.253 436.32 207.84C436.32 206.72 436.653 205.693 437.32 204.76C437.987 203.827 438.933 203.093 440.16 202.56C441.387 202 442.787 201.72 444.36 201.72C446.787 201.72 448.747 202.333 450.24 203.56C451.733 204.787 452.533 206.467 452.64 208.6H449C448.92 207.453 448.453 206.533 447.6 205.84C446.773 205.147 445.653 204.8 444.24 204.8C442.933 204.8 441.893 205.08 441.12 205.64C440.347 206.2 439.96 206.933 439.96 207.84C439.96 208.56 440.187 209.16 440.64 209.64C441.12 210.093 441.707 210.467 442.4 210.76C443.12 211.027 444.107 211.333 445.36 211.68C446.933 212.107 448.213 212.533 449.2 212.96C450.187 213.36 451.027 213.973 451.72 214.8C452.44 215.627 452.813 216.707 452.84 218.04C452.84 219.24 452.507 220.32 451.84 221.28C451.173 222.24 450.227 223 449 223.56C447.8 224.093 446.413 224.36 444.84 224.36ZM470.523 198.52C469.829 198.52 469.243 198.28 468.763 197.8C468.283 197.32 468.043 196.733 468.043 196.04C468.043 195.347 468.283 194.76 468.763 194.28C469.243 193.8 469.829 193.56 470.523 193.56C471.189 193.56 471.749 193.8 472.203 194.28C472.683 194.76 472.923 195.347 472.923 196.04C472.923 196.733 472.683 197.32 472.203 197.8C471.749 198.28 471.189 198.52 470.523 198.52ZM472.283 202.08V224H468.643V202.08H472.283ZM486.246 224.36C484.566 224.36 483.06 224.08 481.726 223.52C480.393 222.933 479.34 222.133 478.566 221.12C477.793 220.08 477.366 218.893 477.286 217.56H481.046C481.153 218.653 481.66 219.547 482.566 220.24C483.5 220.933 484.713 221.28 486.206 221.28C487.593 221.28 488.686 220.973 489.486 220.36C490.286 219.747 490.686 218.973 490.686 218.04C490.686 217.08 490.26 216.373 489.406 215.92C488.553 215.44 487.233 214.973 485.446 214.52C483.82 214.093 482.486 213.667 481.446 213.24C480.433 212.787 479.553 212.133 478.806 211.28C478.086 210.4 477.726 209.253 477.726 207.84C477.726 206.72 478.06 205.693 478.726 204.76C479.393 203.827 480.34 203.093 481.566 202.56C482.793 202 484.193 201.72 485.766 201.72C488.193 201.72 490.153 202.333 491.646 203.56C493.14 204.787 493.94 206.467 494.046 208.6H490.406C490.326 207.453 489.86 206.533 489.006 205.84C488.18 205.147 487.06 204.8 485.646 204.8C484.34 204.8 483.3 205.08 482.526 205.64C481.753 206.2 481.366 206.933 481.366 207.84C481.366 208.56 481.593 209.16 482.046 209.64C482.526 210.093 483.113 210.467 483.806 210.76C484.526 211.027 485.513 211.333 486.766 211.68C488.34 212.107 489.62 212.533 490.606 212.96C491.593 213.36 492.433 213.973 493.126 214.8C493.846 215.627 494.22 216.707 494.246 218.04C494.246 219.24 493.913 220.32 493.246 221.28C492.58 222.24 491.633 223 490.406 223.56C489.206 224.093 487.82 224.36 486.246 224.36ZM518.969 205.08H514.369V224H510.729V205.08H507.889V202.08H510.729V200.52C510.729 198.067 511.355 196.28 512.609 195.16C513.889 194.013 515.929 193.44 518.729 193.44V196.48C517.129 196.48 515.995 196.8 515.329 197.44C514.689 198.053 514.369 199.08 514.369 200.52V202.08H518.969V205.08ZM525.093 198.52C524.399 198.52 523.813 198.28 523.333 197.8C522.853 197.32 522.613 196.733 522.613 196.04C522.613 195.347 522.853 194.76 523.333 194.28C523.813 193.8 524.399 193.56 525.093 193.56C525.759 193.56 526.319 193.8 526.773 194.28C527.253 194.76 527.493 195.347 527.493 196.04C527.493 196.733 527.253 197.32 526.773 197.8C526.319 198.28 525.759 198.52 525.093 198.52ZM526.853 202.08V224H523.213V202.08H526.853ZM543.737 201.68C546.403 201.68 548.563 202.493 550.217 204.12C551.87 205.72 552.697 208.04 552.697 211.08V224H549.097V211.6C549.097 209.413 548.55 207.747 547.457 206.6C546.363 205.427 544.87 204.84 542.977 204.84C541.057 204.84 539.523 205.44 538.377 206.64C537.257 207.84 536.697 209.587 536.697 211.88V224H533.057V202.08H536.697V205.2C537.417 204.08 538.39 203.213 539.617 202.6C540.87 201.987 542.243 201.68 543.737 201.68ZM560.523 198.52C559.829 198.52 559.243 198.28 558.763 197.8C558.283 197.32 558.043 196.733 558.043 196.04C558.043 195.347 558.283 194.76 558.763 194.28C559.243 193.8 559.829 193.56 560.523 193.56C561.189 193.56 561.749 193.8 562.203 194.28C562.683 194.76 562.923 195.347 562.923 196.04C562.923 196.733 562.683 197.32 562.203 197.8C561.749 198.28 561.189 198.52 560.523 198.52ZM562.283 202.08V224H558.643V202.08H562.283ZM576.246 224.36C574.566 224.36 573.06 224.08 571.726 223.52C570.393 222.933 569.34 222.133 568.566 221.12C567.793 220.08 567.366 218.893 567.286 217.56H571.046C571.153 218.653 571.66 219.547 572.566 220.24C573.5 220.933 574.713 221.28 576.206 221.28C577.593 221.28 578.686 220.973 579.486 220.36C580.286 219.747 580.686 218.973 580.686 218.04C580.686 217.08 580.26 216.373 579.406 215.92C578.553 215.44 577.233 214.973 575.446 214.52C573.82 214.093 572.486 213.667 571.446 213.24C570.433 212.787 569.553 212.133 568.806 211.28C568.086 210.4 567.726 209.253 567.726 207.84C567.726 206.72 568.06 205.693 568.726 204.76C569.393 203.827 570.34 203.093 571.566 202.56C572.793 202 574.193 201.72 575.766 201.72C578.193 201.72 580.153 202.333 581.646 203.56C583.14 204.787 583.94 206.467 584.046 208.6H580.406C580.326 207.453 579.86 206.533 579.006 205.84C578.18 205.147 577.06 204.8 575.646 204.8C574.34 204.8 573.3 205.08 572.526 205.64C571.753 206.2 571.366 206.933 571.366 207.84C571.366 208.56 571.593 209.16 572.046 209.64C572.526 210.093 573.113 210.467 573.806 210.76C574.526 211.027 575.513 211.333 576.766 211.68C578.34 212.107 579.62 212.533 580.606 212.96C581.593 213.36 582.433 213.973 583.126 214.8C583.846 215.627 584.22 216.707 584.246 218.04C584.246 219.24 583.913 220.32 583.246 221.28C582.58 222.24 581.633 223 580.406 223.56C579.206 224.093 577.82 224.36 576.246 224.36ZM600.265 201.68C601.918 201.68 603.411 202.04 604.745 202.76C606.078 203.453 607.118 204.507 607.865 205.92C608.638 207.333 609.025 209.053 609.025 211.08V224H605.425V211.6C605.425 209.413 604.878 207.747 603.785 206.6C602.691 205.427 601.198 204.84 599.305 204.84C597.385 204.84 595.851 205.44 594.705 206.64C593.585 207.84 593.025 209.587 593.025 211.88V224H589.385V194.4H593.025V205.2C593.745 204.08 594.731 203.213 595.985 202.6C597.265 201.987 598.691 201.68 600.265 201.68ZM634.971 212.2C634.971 212.893 634.931 213.627 634.851 214.4H617.331C617.464 216.56 618.197 218.253 619.531 219.48C620.891 220.68 622.531 221.28 624.451 221.28C626.024 221.28 627.331 220.92 628.371 220.2C629.437 219.453 630.184 218.467 630.611 217.24H634.531C633.944 219.347 632.771 221.067 631.011 222.4C629.251 223.707 627.064 224.36 624.451 224.36C622.371 224.36 620.504 223.893 618.851 222.96C617.224 222.027 615.944 220.707 615.011 219C614.077 217.267 613.611 215.267 613.611 213C613.611 210.733 614.064 208.747 614.971 207.04C615.877 205.333 617.144 204.027 618.771 203.12C620.424 202.187 622.317 201.72 624.451 201.72C626.531 201.72 628.371 202.173 629.971 203.08C631.571 203.987 632.797 205.24 633.651 206.84C634.531 208.413 634.971 210.2 634.971 212.2ZM631.211 211.44C631.211 210.053 630.904 208.867 630.291 207.88C629.677 206.867 628.837 206.107 627.771 205.6C626.731 205.067 625.571 204.8 624.291 204.8C622.451 204.8 620.877 205.387 619.571 206.56C618.291 207.733 617.557 209.36 617.371 211.44H631.211ZM638.415 212.96C638.415 210.72 638.869 208.76 639.775 207.08C640.682 205.373 641.922 204.053 643.495 203.12C645.095 202.187 646.882 201.72 648.855 201.72C650.562 201.72 652.149 202.12 653.615 202.92C655.082 203.693 656.202 204.72 656.975 206V194.4H660.655V224H656.975V219.88C656.255 221.187 655.189 222.267 653.775 223.12C652.362 223.947 650.709 224.36 648.815 224.36C646.869 224.36 645.095 223.88 643.495 222.92C641.922 221.96 640.682 220.613 639.775 218.88C638.869 217.147 638.415 215.173 638.415 212.96ZM656.975 213C656.975 211.347 656.642 209.907 655.975 208.68C655.309 207.453 654.402 206.52 653.255 205.88C652.135 205.213 650.895 204.88 649.535 204.88C648.175 204.88 646.935 205.2 645.815 205.84C644.695 206.48 643.802 207.413 643.135 208.64C642.469 209.867 642.135 211.307 642.135 212.96C642.135 214.64 642.469 216.107 643.135 217.36C643.802 218.587 644.695 219.533 645.815 220.2C646.935 220.84 648.175 221.16 649.535 221.16C650.895 221.16 652.135 220.84 653.255 220.2C654.402 219.533 655.309 218.587 655.975 217.36C656.642 216.107 656.975 214.653 656.975 213ZM671.527 196.12L671.087 216.12H668.047L667.607 196.12H671.527ZM669.727 224.24C669.033 224.24 668.447 224 667.967 223.52C667.487 223.04 667.247 222.453 667.247 221.76C667.247 221.067 667.487 220.48 667.967 220C668.447 219.52 669.033 219.28 669.727 219.28C670.393 219.28 670.953 219.52 671.407 220C671.887 220.48 672.127 221.067 672.127 221.76C672.127 222.453 671.887 223.04 671.407 223.52C670.953 224 670.393 224.24 669.727 224.24Z" fill="black"/>
</svg>
