<svg width="840" height="568" viewBox="0 0 840 568" fill="none" xmlns="http://www.w3.org/2000/svg">
<rect width="840" height="551" fill="#D7E2C4"/>
<path d="M242.648 160.939C208.439 134.216 210.728 84.4807 216.148 62.9536C233.614 0.599209 329.975 103.595 343.827 111.39C357.68 119.184 378.759 201.024 371.532 223.85C364.304 246.676 337.203 252.244 311.305 242.222C285.408 232.201 285.408 194.343 242.648 160.939Z" fill="#E4F0CB"/>
<path d="M524.003 181.5C425.603 180.7 428.503 237 398.503 301C368.503 365 305.003 417.5 410.503 469.5C494.903 511.1 661.67 486.834 734.503 469.5C749.836 445.334 775.403 387.5 755.003 349.5C729.503 302 683.503 309.5 638.503 290C593.503 270.5 647.003 182.5 524.003 181.5Z" fill="#E4F0CB"/>
<path d="M409.143 352.759C407.11 349.428 409.508 345.155 413.411 345.155H714.606C716.27 345.155 717.826 345.983 718.755 347.364L820.262 498.263C822.496 501.584 820.116 506.054 816.113 506.054H505.494C503.752 506.054 502.134 505.146 501.226 503.658L409.143 352.759Z" fill="#A08C88"/>
<path d="M638.033 450.056C637.814 450.373 598.784 506.842 606.616 506.842H726.004C726.011 506.842 726.008 506.842 726.015 506.842L819.922 502.935C820.307 502.919 820.53 502.491 820.323 502.166L762.574 411.703C762.328 411.318 761.721 411.43 761.62 411.875C760.331 417.55 753.921 440.493 734.644 439.801C712.652 439.012 704.797 420.083 682.804 420.872C660.928 421.656 638.275 449.755 638.036 450.052C638.028 450.061 638.04 450.046 638.033 450.056Z" fill="#B3A09C"/>
<path d="M490.902 398.788C468.124 377.492 450.66 380.133 449.273 416.928L410.786 353.042L414.714 345.944H654.275C643.017 360.929 633.068 357.774 618.145 391.689C603.221 425.604 596.152 437.435 561.592 437.435C527.033 437.435 513.68 420.083 490.902 398.788Z" fill="#866F6B"/>
<path d="M475.979 465.829L497.971 501.321" stroke="#513D3D" stroke-width="5" stroke-linecap="square"/>
<path d="M410.786 356.197L451.63 422.449" stroke="#513D3D" stroke-width="4" stroke-linecap="round"/>
<path d="M776.02 429.548L820.005 495.8" stroke="#614949" stroke-width="5" stroke-linecap="round"/>
<path d="M506.611 507L627.57 507.631" stroke="#513D3D" stroke-width="5" stroke-linecap="round"/>
<path d="M498.757 502.11C497.97 504.213 503.641 507.433 505.981 506.859" stroke="#513D3D" stroke-width="5" stroke-linecap="round"/>
<path d="M812.328 507.134L723.395 507.631" stroke="#513D3D" stroke-width="5" stroke-linecap="round"/>
<path d="M820.005 495.8C823.146 498.955 818.593 507.688 812.936 507.152" stroke="#513D3D" stroke-width="5" stroke-linecap="round"/>
<path d="M420.212 345.155H654.275" stroke="#614949" stroke-width="4" stroke-linecap="round"/>
<path d="M655.846 401.943H725.399" stroke="#866F6B" stroke-width="3" stroke-linecap="round"/>
<path d="M682.484 390.901H717.951" stroke="#866F6B" stroke-width="3" stroke-linecap="round"/>
<path d="M509.753 454.268H604.179" stroke="#866F6B" stroke-width="3" stroke-linecap="round"/>
<path d="M550.748 465.194H590.361" stroke="#866F6B" stroke-width="3" stroke-linecap="round"/>
<path d="M458.699 345.155H476.764" stroke="white" stroke-width="4"/>
<path d="M408.864 353.505C406.876 349.515 413.945 342.675 419.144 344.978" stroke="#614949" stroke-width="4" stroke-linecap="round"/>
<path d="M599.404 368.43L604.945 364.547" stroke="#D1E668" stroke-width="2" stroke-linecap="round"/>
<path d="M600.958 370.024L605.722 365.344" stroke="#D1E668" stroke-width="2" stroke-linecap="round"/>
<path d="M599.352 373.162L607.275 366.939" stroke="#D1E668" stroke-width="2" stroke-linecap="round"/>
<path d="M622.035 393.814L625.107 388.431" stroke="#D1E668" stroke-width="2" stroke-linecap="round"/>
<path d="M619.069 392.203L622.918 387.619" stroke="#D1E668" stroke-width="2" stroke-linecap="round"/>
<path d="M620.464 393.796L624.313 389.211" stroke="#D1E668" stroke-width="2" stroke-linecap="round"/>
<path d="M603.312 363.412C603.511 362.784 604.25 362.516 604.804 362.872L609.623 365.967C610.589 366.588 611.824 366.602 612.803 366.002L617.689 363.014C618.25 362.67 618.984 362.954 619.169 363.587L626.29 387.94C626.479 388.586 625.991 389.23 625.32 389.223L596.602 388.907C595.931 388.899 595.458 388.244 595.661 387.604L603.312 363.412Z" fill="#D1E668"/>
<path d="M597.394 368.048C597.605 367.432 598.338 367.179 598.884 367.534L604.834 371.411C605.808 372.046 607.06 372.059 608.047 371.447L614.081 367.701C614.634 367.358 615.362 367.627 615.559 368.248L623.824 394.201C624.031 394.851 623.542 395.513 622.861 395.506L589.499 395.139C588.818 395.131 588.344 394.458 588.565 393.813L597.394 368.048Z" fill="#C2D852"/>
<rect x="629.014" y="169.348" width="31.4179" height="41.0134" rx="3" fill="white"/>
<rect x="616.447" y="188.278" width="31.4179" height="17.3518" rx="3" fill="white"/>
<rect x="627.443" y="175.658" width="32.9888" height="41.0134" rx="3" fill="white"/>
<path d="M613.305 269.516C625.562 272.475 650.821 262.642 644.723 219.826" stroke="#4B570A" stroke-width="3" stroke-linecap="round"/>
<path d="M485.648 390.19H528.062L529.633 399.654L525.503 408.5L506.003 410.5L486.434 407.542L482.003 400.5L485.648 390.19Z" fill="#C6DC55"/>
<path d="M493.901 408.089C499.209 407.455 515.19 402.343 524.535 396.792C526.448 395.656 529.892 397.591 529.482 399.777L528.666 404.13C528.562 404.684 528.235 405.175 527.72 405.404C524 407.054 515.148 408.192 514.443 409.495C513.683 410.901 486.066 409.024 493.901 408.089Z" fill="#B6CA51"/>
<path d="M608.592 388.612H566.178L563.503 398.077L568.003 406.5L588.003 408L607.807 405.964L611.734 398.077L608.592 388.612Z" fill="#C6DC55"/>
<path d="M601.523 403.598C595.931 402.872 578.528 396.827 568.77 390.399C566.903 389.169 563.704 390.884 564.125 393.08L566.118 403.49C566.329 404.592 567.409 405.288 568.529 405.207C573.873 404.821 577.299 407.712 578 409.119C578.785 410.697 609.612 404.648 601.523 403.598Z" fill="#B6CA51"/>
<path d="M509.212 389.401C515.653 386.917 518.479 387.22 524.921 389.401" stroke="#717171" stroke-width="3" stroke-linecap="round"/>
<path d="M567.749 388.786C574.191 386.302 577.017 386.606 583.458 388.786" stroke="#717171" stroke-width="3" stroke-linecap="round"/>
<path d="M528.311 314.473C517.315 319.994 512.602 356.275 517.315 390.979" stroke="#3A4409" stroke-width="3" stroke-linecap="round"/>
<path d="M561.466 314.473C576.292 319.937 582.646 355.844 576.292 390.19" stroke="#3A4409" stroke-width="3" stroke-linecap="round"/>
<path d="M478.457 278.192C467.461 283.713 462.748 319.994 467.461 354.697" stroke="#3A4409" stroke-width="3" stroke-linecap="round"/>
<path fill-rule="evenodd" clip-rule="evenodd" d="M622.73 234.023C622.73 244.692 620.699 255.256 616.752 265.112C612.804 274.968 607.019 283.924 599.725 291.467C592.432 299.011 583.773 304.995 574.243 309.078C564.714 313.16 554.5 315.261 544.186 315.261C533.871 315.261 523.657 313.16 514.128 309.078C512.519 308.388 510.935 307.645 509.378 306.849L532.607 273.411C536.572 275.007 540.754 275.826 544.971 275.826C549.819 275.826 554.619 274.744 559.098 272.644C563.577 270.543 567.647 267.464 571.075 263.582C574.503 259.7 577.222 255.092 579.077 250.02C580.932 244.949 581.887 239.513 581.887 234.023H622.73ZM508.055 234.023C508.055 239.513 509.01 244.949 510.865 250.02C511.643 252.146 512.572 254.19 513.641 256.133L487.709 290.482C480.856 283.148 475.396 274.542 471.62 265.112C467.673 255.256 465.641 244.692 465.641 234.023L508.055 234.023Z" fill="#BFD54F"/>
<path d="M544.971 315.104C579.688 312.268 595.336 304.693 611.734 277.403" stroke="#8C9B40" stroke-width="3" stroke-linecap="round"/>
<path d="M622.73 234.812C622.363 244.427 618.803 260.84 618.803 260.84" stroke="#8C9B40" stroke-width="3" stroke-linecap="round"/>
<path fill-rule="evenodd" clip-rule="evenodd" d="M537.588 274.981L515.124 308.952L522.979 312.107L545.844 275.814C545.553 275.822 545.262 275.826 544.971 275.826C542.485 275.826 540.012 275.541 537.588 274.981Z" fill="#DDF464"/>
<path fill-rule="evenodd" clip-rule="evenodd" d="M513.641 256.133L487.457 290.816L507.516 309.53L532.607 273.411C532.014 273.173 531.426 272.917 530.844 272.644C526.365 270.543 522.295 267.464 518.868 263.582C516.876 261.327 515.124 258.827 513.641 256.133Z" fill="#DDF464"/>
<path d="M465.641 236.39C473.112 290.149 491.561 310.371 544.186 315.104" stroke="#8C9B40" stroke-width="3" stroke-linecap="round"/>
<path d="M580.316 277.949V284.501M516.695 279.769V286.322" stroke="#614949" stroke-width="5" stroke-linecap="round"/>
<path d="M542.615 300.276C546.155 298.214 547.539 298.091 549.684 293.177M549.684 293.177C550.817 298.325 556.753 300.276 556.753 300.276M549.684 293.177V289.234" stroke="#453131" stroke-width="2" stroke-linecap="round"/>
<path d="M547.327 289.234H552.04" stroke="#453131" stroke-width="3" stroke-linecap="round"/>
<path d="M509.212 389.401C515.346 394.358 518.786 394.192 524.921 389.401" stroke="#5F6D12" stroke-width="3" stroke-linecap="round"/>
<path d="M567.749 388.612C573.884 393.569 577.323 393.403 583.458 388.612" stroke="#5F6D12" stroke-width="3" stroke-linecap="round"/>
<path d="M509.212 389.401C498.423 387.948 488.79 389.401 485.648 391.767C482.506 394.133 477.794 401.232 485.648 406.753C493.503 412.274 520.208 411.485 526.492 406.753C532.775 402.021 531.451 395.915 526.492 389.401" stroke="#5F6D12" stroke-width="3" stroke-linecap="round"/>
<path d="M487.219 398.077C492.485 395.254 498.202 394.485 508.426 395.711" stroke="#8C9B40" stroke-width="2" stroke-linecap="round"/>
<path d="M584.547 387.616C595.335 386.163 604.969 387.616 608.11 389.982C611.252 392.348 615.965 399.447 608.11 404.968C600.256 410.489 573.551 409.7 567.267 404.968C560.984 400.236 562.307 394.129 567.267 387.616" stroke="#5F6D12" stroke-width="3" stroke-linecap="round"/>
<path d="M596.811 401.232C585.031 403.977 571.682 399.19 570.891 398.077" stroke="#8B9B38" stroke-width="2" stroke-linecap="round"/>
<path d="M508.055 235.601C505.908 266.57 541.851 281.68 560.68 270.304" stroke="white" stroke-width="3" stroke-linecap="round"/>
<path d="M476.637 279.769C469.568 289.234 465.641 299.487 465.641 326.304" stroke="#3A4409" stroke-width="3" stroke-linecap="round"/>
<path d="M613.305 269.674C624.018 271.907 645.508 265.308 645.508 232.97" stroke="#4B570A" stroke-width="3" stroke-linecap="round"/>
<path d="M629.014 206.418C627.839 207.126 625.862 211.267 626.379 213.019C626.487 213.385 626.726 213.702 626.922 214.028C628.013 215.847 631.003 218.249 635.298 218.249C640.01 218.249 638.439 218.249 645.508 218.249C650.441 218.249 654.226 218.249 656.063 218.249C656.851 218.249 657.605 217.945 658.11 217.34C659.954 215.127 663.783 209.427 657.29 206.418" stroke="#5F6D12" stroke-width="3.5" stroke-linecap="round"/>
<path d="M629.799 206.418C626.396 206.681 615.661 204.998 615.661 196.165C615.661 187.331 623.778 186.7 625.872 187.489C626.578 187.793 627.487 188.448 628.229 189.5M629.014 197.742C630.173 193.864 629.412 191.177 628.229 189.5M628.229 189.5C626.919 183.045 626.972 169.979 637.654 169.348C646.603 168.82 651.032 168.992 652.695 169.217C653.141 169.277 653.602 169.308 654.051 169.292C663.204 168.96 661.266 186.514 661.218 196.591C661.217 196.835 661.249 197.072 661.3 197.311C661.974 200.477 661.526 205.203 657.29 206.418" stroke="#5F6D12" stroke-width="3.5" stroke-linecap="round"/>
<path d="M485.883 370.123C485.883 379.183 478.572 386.514 469.568 386.514C460.564 386.514 453.253 379.183 453.253 370.123C453.253 361.064 460.564 353.733 469.568 353.733C478.572 353.733 485.883 361.064 485.883 370.123Z" fill="white" stroke="#5F6D12" stroke-width="3.5"/>
<path d="M467.212 373.278C467.355 378.33 468.952 380.835 472.71 385.109" stroke="#5F6D12" stroke-width="2" stroke-linecap="round"/>
<path d="M473.495 370.912C473.639 375.963 475.236 378.469 478.993 382.743" stroke="#5F6D12" stroke-width="2" stroke-linecap="round"/>
<path d="M757.568 452.563C757.128 452.573 746.091 452.825 735.589 452.921C739.254 447.186 743.286 434.476 752.083 433.057C757.581 432.171 760.128 439.752 757.218 441.924C762.314 438.968 772.662 434.831 773.29 441.924C773.918 449.008 763.106 451.965 757.602 452.561C757.588 452.562 757.582 452.563 757.568 452.563Z" fill="#8B9B38"/>
<path d="M679.036 425.964C695.287 415.58 718.309 409.227 723.807 414.546C729.305 419.866 715.167 452.034 717.523 452.921C718.604 453.327 726.504 453.003 735.589 452.921M735.589 452.921C746.091 452.825 757.128 452.573 757.568 452.563C757.582 452.563 757.588 452.562 757.601 452.561C763.106 451.965 773.918 449.008 773.29 441.924C772.662 434.831 762.314 438.968 757.218 441.924M735.589 452.921C739.254 447.186 743.286 434.476 752.083 433.057C757.581 432.171 760.128 439.752 757.218 441.924M735.589 452.921C742.378 450.11 752.522 445.428 757.218 441.924" stroke="#5F6F11" stroke-width="3" stroke-linecap="round"/>
<path d="M748.142 462.484C747.703 462.494 736.666 462.745 726.163 462.841C729.829 457.106 733.861 444.396 742.658 442.978C748.156 442.091 750.702 449.673 747.793 451.844C752.888 448.888 763.236 444.751 763.865 451.844C764.492 458.928 753.681 461.885 748.176 462.481L748.175 462.481C748.162 462.483 748.156 462.483 748.142 462.484Z" fill="#8B9B38"/>
<path d="M682.178 434.22C698.429 423.835 710.043 419.805 713.596 423.243C717.15 426.681 704.956 461.597 707.313 462.483C708.394 462.89 717.079 462.924 726.163 462.841M726.163 462.841C736.666 462.745 747.703 462.494 748.142 462.484C748.156 462.483 748.162 462.483 748.176 462.481C753.681 461.885 764.492 458.928 763.865 451.844C763.236 444.751 752.888 448.888 747.793 451.844M726.163 462.841C729.829 457.106 733.861 444.396 742.658 442.978C748.156 442.091 750.702 449.673 747.793 451.844M726.163 462.841C732.953 460.03 743.097 455.348 747.793 451.844" stroke="#5F6F11" stroke-width="3" stroke-linecap="round"/>
<path d="M737.146 471.109C736.706 471.119 725.67 471.37 715.167 471.466C718.832 465.731 722.864 453.021 731.661 451.603C737.16 450.716 739.706 458.298 736.797 460.469C741.892 457.514 752.24 453.376 752.868 460.469C753.496 467.553 742.684 470.51 737.18 471.106C737.166 471.108 737.16 471.108 737.146 471.109Z" fill="#8B9B38"/>
<path d="M684.535 443.805C700.785 433.42 701.814 434.306 703.385 435.825C704.956 437.345 693.96 470.222 696.316 471.108C697.397 471.515 706.082 471.549 715.167 471.466M715.167 471.466C725.67 471.37 736.706 471.119 737.146 471.109C737.16 471.108 737.166 471.108 737.18 471.106C742.684 470.51 753.496 467.553 752.869 460.469C752.24 453.376 741.892 457.514 736.797 460.469M715.167 471.466C718.832 465.731 722.864 453.021 731.661 451.603C737.16 450.716 739.706 458.298 736.797 460.469M715.167 471.466C721.957 468.655 732.1 463.973 736.797 460.469" stroke="#5F6F11" stroke-width="3" stroke-linecap="round"/>
<rect width="6.51238" height="47.2604" transform="matrix(0.44853 0.893768 -0.842479 0.53873 614.717 438.463)" fill="#F2A838"/>
<path d="M677.728 469.54L576.143 471.29L615.265 437.728C615.365 437.642 615.473 437.566 615.588 437.502L661.824 411.551C662.434 411.209 663.186 411.21 663.784 411.573C684.56 424.182 685.207 453.082 679.515 468.305C679.237 469.049 678.523 469.526 677.728 469.54Z" fill="#F2A838"/>
<path d="M642.12 470.404H676.68" stroke="#E68A00" stroke-width="2.5" stroke-linecap="round"/>
<path d="M606.775 442.919L572.702 466.765C571.1 467.887 571.893 470.404 573.849 470.404H609.561C610.268 470.404 610.931 470.034 611.251 469.403C613.829 464.323 613.6 458.657 609.917 455.331" stroke="#E68A00" stroke-width="2.5" stroke-linecap="round"/>
<path d="M611.488 439.372L625.259 431.191C625.956 430.776 626.839 430.818 627.491 431.3C629.625 432.878 631.91 434.836 631.91 439.372" stroke="#E68A00" stroke-width="2.5" stroke-linecap="round"/>
<path d="M619.342 470.404H631.536C632.253 470.404 632.926 470.025 633.218 469.371C635.575 464.095 635.33 454.874 627.982 448.238" stroke="#E68A00" stroke-width="2.5" stroke-linecap="round"/>
<path d="M634.266 426.959L662.542 411" stroke="#E68A00" stroke-width="2.5" stroke-linecap="round"/>
<path d="M642.12 424.299C650.76 425.186 657.829 444.692 654.688 456.218" stroke="#E68A00" stroke-width="2.5" stroke-linecap="round"/>
<path d="M662.542 411C674.586 418.684 694.431 441.323 677.465 470.404" stroke="#E68A00" stroke-width="2.5" stroke-linecap="round"/>
<path d="M668.826 470.404C671.967 462.424 675.738 444.869 665.684 438.485" stroke="#E68A00" stroke-width="2.5" stroke-linecap="round"/>
<path d="M648.424 454.038L636.524 461.501C636.099 461.767 636.288 462.424 636.79 462.424H648.689C648.966 462.424 649.189 462.2 649.189 461.924V454.462C649.189 454.069 648.757 453.829 648.424 454.038Z" fill="white"/>
<path d="M648.424 454.038L636.524 461.501C636.099 461.767 636.288 462.424 636.79 462.424H648.689C648.966 462.424 649.189 462.2 649.189 461.924V454.462C649.189 454.069 648.757 453.829 648.424 454.038Z" stroke="#453131" stroke-width="2" stroke-linecap="round"/>
<path d="M648.424 454.038L636.524 461.501C636.099 461.767 636.288 462.424 636.79 462.424H648.689C648.966 462.424 649.189 462.2 649.189 461.924V454.462C649.189 454.069 648.757 453.829 648.424 454.038Z" stroke="#453131" stroke-width="2" stroke-linecap="round"/>
<path d="M639.764 439.755C641.859 435.617 647.933 428.761 655.473 434.435C664.898 441.528 644.477 447.734 649.975 434.435" stroke="#453131" stroke-width="2" stroke-linecap="round"/>
<path d="M639.764 439.755C641.859 435.617 647.933 428.761 655.473 434.435C664.898 441.528 644.477 447.734 649.975 434.435" stroke="#453131" stroke-width="2" stroke-linecap="round"/>
<path d="M650.76 438.785V435.098C650.76 434.678 651.247 434.445 651.574 434.708L655.385 437.781C655.722 438.053 655.578 438.595 655.151 438.664L651.34 439.279C651.036 439.328 650.76 439.093 650.76 438.785Z" stroke="#453131" stroke-width="2" stroke-linecap="round"/>
<path d="M650.76 438.785V435.098C650.76 434.678 651.247 434.445 651.574 434.708L655.385 437.781C655.722 438.053 655.578 438.595 655.151 438.664L651.34 439.279C651.036 439.328 650.76 439.093 650.76 438.785Z" stroke="#453131" stroke-width="2" stroke-linecap="round"/>
<path d="M605.204 459.26C607.299 455.123 613.373 448.266 620.913 453.941C630.339 461.034 609.917 467.24 615.415 453.941" stroke="#453131" stroke-width="2" stroke-linecap="round"/>
<path d="M605.204 459.26C607.299 455.123 613.373 448.266 620.913 453.941C630.339 461.034 609.917 467.24 615.415 453.941" stroke="#453131" stroke-width="2" stroke-linecap="round"/>
<path d="M615.646 459.928L616.44 453.575C616.489 453.179 616.959 452.998 617.261 453.257L622.82 458.022C623.128 458.286 623.01 458.788 622.616 458.887L616.263 460.475C615.922 460.56 615.602 460.277 615.646 459.928Z" fill="#453131"/>
<path d="M615.646 459.928L616.44 453.575C616.489 453.179 616.959 452.998 617.261 453.257L622.82 458.022C623.128 458.286 623.01 458.788 622.616 458.887L616.263 460.475C615.922 460.56 615.602 460.277 615.646 459.928Z" stroke="#453131" stroke-width="2" stroke-linecap="round"/>
<path d="M615.646 459.928L616.44 453.575C616.489 453.179 616.959 452.998 617.261 453.257L622.82 458.022C623.128 458.286 623.01 458.788 622.616 458.887L616.263 460.475C615.922 460.56 615.602 460.277 615.646 459.928Z" stroke="#453131" stroke-width="2" stroke-linecap="round"/>
<path d="M650.625 440.09L651.44 433.575C651.489 433.179 651.959 432.998 652.261 433.257L657.983 438.162C658.255 438.395 658.201 438.829 657.882 438.989L654.661 440.599C654.591 440.634 654.515 440.652 654.437 440.652H651.121C650.821 440.652 650.588 440.388 650.625 440.09Z" fill="#453131"/>
<path d="M650.625 440.09L651.44 433.575C651.489 433.179 651.959 432.998 652.261 433.257L657.983 438.162C658.255 438.395 658.201 438.829 657.882 438.989L654.661 440.599C654.591 440.634 654.515 440.652 654.437 440.652H651.121C650.821 440.652 650.588 440.388 650.625 440.09Z" stroke="#453131" stroke-width="2" stroke-linecap="round"/>
<path d="M650.625 440.09L651.44 433.575C651.489 433.179 651.959 432.998 652.261 433.257L657.983 438.162C658.255 438.395 658.201 438.829 657.882 438.989L654.661 440.599C654.591 440.634 654.515 440.652 654.437 440.652H651.121C650.821 440.652 650.588 440.388 650.625 440.09Z" stroke="#453131" stroke-width="2" stroke-linecap="round"/>
<path d="M349.647 133.676L340.274 134.423C333.563 138.74 352.067 148.844 362.158 153.356C364.639 170.686 376.912 166.753 380.705 164.973C384.498 163.193 383.495 152.836 377.093 147.931C371.973 144.006 356.662 136.792 349.647 133.676Z" fill="#C1A88B" stroke="#C1A88B" stroke-width="3" stroke-linecap="round"/>
<path d="M333.37 152.78L344.038 139.862L391.432 177.466L389.772 185.946L375.939 199.877L333.37 152.78Z" fill="#574545"/>
<path d="M253.499 47.7618C253.561 45.9438 255.571 45.0917 256.751 46.3834L341.412 139.063C342.15 139.871 342.165 141.172 341.445 141.988L313.221 173.988C312.438 174.876 311.12 174.822 310.388 173.872L287.965 144.758L266.507 111.631C266.427 111.507 266.359 111.374 266.305 111.234L252.72 76.1376C252.61 75.8546 252.559 75.5492 252.569 75.243L253.499 47.7618Z" fill="#C9C9C9"/>
<path d="M285.555 124.77C282.211 116.54 285.454 91.8958 286.848 82.3707L299.387 88.7794C296.521 88.7794 296.223 125.493 296.621 138.701L285.555 124.77Z" fill="#F4F4F4"/>
<path d="M271.871 107.364C269.452 99.2207 271.798 74.8359 272.806 65.411L281.879 72.9509C279.805 72.9509 279.589 109.278 279.877 122.347L271.871 107.364Z" fill="#F4F4F4"/>
<path d="M321.716 162.929C296.897 136.336 282.964 120.096 258.087 89.0334C262.07 112.777 295.895 155.055 312.31 173.226L321.716 162.929Z" fill="#D9D9D9"/>
<path d="M342.741 139.307C342.741 139.307 317.29 172.015 312.31 173.226C307.34 174.435 233.27 81.1771 256.285 45.6398C256.356 45.5297 256.512 45.5184 256.599 45.6162L303.457 98.1189M342.741 139.307L317.843 114.473M342.741 139.307C359.709 151.017 393.313 175.77 391.985 181.1C390.325 187.763 378.153 201.088 374.833 199.271C371.513 197.454 333.731 153.844 333.889 151.421" stroke="#574545" stroke-width="3" stroke-linecap="round"/>
<path d="M381.561 170.161C384.653 173.218 386.981 176.487 388.26 179.268C388.9 180.661 389.255 181.882 389.339 182.861C389.424 183.837 389.234 184.463 388.918 184.847C388.602 185.23 388.052 185.5 387.156 185.507C386.258 185.515 385.113 185.253 383.781 184.697C381.124 183.587 377.917 181.384 374.824 178.327C371.732 175.27 369.405 172.001 368.126 169.22C367.485 167.827 367.131 166.606 367.046 165.628C366.962 164.651 367.151 164.025 367.467 163.641C367.783 163.258 368.333 162.988 369.229 162.981C370.127 162.973 371.272 163.235 372.604 163.791C375.261 164.901 378.469 167.104 381.561 170.161Z" stroke="#453131" stroke-width="2"/>
<path d="M379.334 172.706C381.119 174.47 382.491 176.297 383.278 177.798C383.674 178.554 383.894 179.174 383.97 179.628C384.007 179.852 384.003 180.001 383.989 180.091C383.982 180.134 383.973 180.159 383.968 180.172C383.962 180.184 383.959 180.189 383.958 180.19C383.956 180.192 383.952 180.196 383.942 180.203C383.931 180.21 383.909 180.222 383.87 180.234C383.79 180.259 383.655 180.278 383.448 180.261C383.027 180.225 382.441 180.048 381.714 179.694C380.27 178.989 378.47 177.68 376.686 175.916C374.902 174.152 373.529 172.325 372.742 170.824C372.346 170.068 372.126 169.448 372.05 168.994C372.013 168.77 372.017 168.621 372.032 168.531C372.038 168.488 372.047 168.463 372.053 168.45C372.058 168.438 372.061 168.433 372.063 168.432C372.064 168.43 372.068 168.426 372.078 168.419C372.089 168.412 372.111 168.4 372.15 168.388C372.23 168.363 372.366 168.344 372.572 168.361C372.993 168.397 373.579 168.574 374.306 168.928C375.75 169.633 377.55 170.942 379.334 172.706Z" stroke="#453131" stroke-width="2"/>
<path d="M365.415 170.32C367.678 174.528 371.644 182.347 382.773 187.641" stroke="#453131" stroke-width="2" stroke-linecap="round"/>
<path d="M333.98 153.238L343.58 140.226C344.172 139.423 345.472 139.883 345.441 140.88C345.156 149.975 345.695 165.38 350.346 173.16C353.308 176.803 354.496 178.325 351.685 175.043C351.205 174.482 350.759 173.851 350.346 173.16C346.31 168.195 338.979 159.293 333.98 153.238Z" fill="#453131"/>
<path d="M333.98 153.238L343.58 140.226C344.172 139.423 345.472 139.883 345.441 140.88C345.131 150.783 345.798 168.168 351.685 175.043C358.325 182.796 342.648 163.737 333.98 153.238Z" stroke="#453131" stroke-width="2" stroke-linecap="round"/>
<path d="M391.523 161.227C400.078 162.993 421.351 160.962 438 138.701" stroke="#453131" stroke-width="3" stroke-linecap="round"/>
<path d="M394.843 150.479C400.75 151.688 415.439 150.298 426.934 135.067" stroke="#453131" stroke-width="2.5" stroke-linecap="round"/>
<path d="M327.279 182.536C327.279 182.536 324.35 174.488 325.326 171.269C326.302 168.05 340.947 157.856 344.853 159.466C348.758 161.075 357.057 174.488 360.962 180.926C364.867 187.364 368.284 192.193 368.284 194.339C368.284 196.485 359.986 207.751 353.151 207.751C346.317 207.751 334.601 193.802 334.601 193.802C329.72 189.51 327.279 182.536 327.279 182.536Z" fill="#C1A88B" stroke="#C1A88B" stroke-width="3" stroke-linecap="round"/>
<path d="M331.766 193.214C335.824 199.271 345.488 210.901 351.685 208.962" stroke="#453131" stroke-width="3" stroke-linecap="round"/>
<path d="M358.325 207.145C361.46 205.934 368.174 201.694 369.944 194.426C369.944 192.205 367.399 184.371 357.218 170.803" stroke="#453131" stroke-width="3" stroke-linecap="round"/>
<path d="M324.02 177.466C322.914 174.639 322.36 168.138 329 164.746C333.058 162.121 341.947 156.993 345.046 157.478" stroke="#453131" stroke-width="3" stroke-linecap="round"/>
<path d="M281.709 378.397C259.663 393.576 156.962 404.552 121.473 428.839C85.9841 453.126 122.011 516.271 162.339 485.913C202.666 455.554 226.863 480.892 252.673 465.713C278.483 450.533 252.135 462.793 291.925 432.434C331.716 402.076 303.755 363.217 281.709 378.397Z" fill="#E4F0CB"/>
<path d="M245.587 313.982C273.51 295.346 331.103 307.06 261.294 344.331" stroke="#453131" stroke-width="7"/>
<ellipse cx="84.0933" cy="39.3125" rx="84.0933" ry="39.3125" transform="matrix(0.971871 -0.235513 0.274329 0.961636 107.392 389.391)" fill="#BCB9B9"/>
<ellipse cx="84.0933" cy="39.3125" rx="84.0933" ry="39.3125" transform="matrix(0.971871 -0.235513 0.274329 0.961636 88.6796 331.766)" fill="#D0CFCF"/>
<ellipse cx="73.7767" cy="29.4311" rx="73.7767" ry="29.4311" transform="matrix(0.970834 -0.239755 0.269565 0.962982 107.276 351.549)" fill="#E7C39A"/>
<path d="M132.846 294.885C130.521 322.177 167.714 332.002 167.714 332.002L175.85 329.273C175.85 329.273 162.484 309.622 167.714 294.885C172.945 280.147 202.001 272.505 202.582 249.034C203.164 225.563 170.039 215.192 171.201 201L91.5853 223.925C92.8198 237.716 128.197 232.113 137.495 249.034C146.793 265.955 135.171 267.593 132.846 294.885Z" fill="#D2B18A" fill-opacity="0.3"/>
<path d="M176.431 258.859C161.903 258.859 162.135 242.811 167.714 231.021C174.688 216.284 198.515 256.13 176.431 258.859Z" fill="#E1C69D" fill-opacity="0.49"/>
<path d="M121.986 293.793C114.083 329.6 138.839 335.823 152.786 336.915L140.583 344.556H128.96C53.9931 342.373 86.5367 307.985 87.699 305.802L87.6992 305.801C94.0917 293.793 110.363 263.226 87.699 265.409C50.4583 268.997 47.0194 253.219 48.1817 241.938L74.3329 234.296C77.8197 243.576 112.107 232.659 128.96 250.126C142.442 264.099 125.473 281.239 121.986 293.793Z" fill="#D2B18A" fill-opacity="0.3"/>
<path d="M100.092 356.341C44.4739 373.191 50.4766 402.047 124.5 388" stroke="#453333" stroke-width="7"/>
<path d="M101.5 353.5C45.8817 370.35 45.4564 400.087 119.48 386.04M243.843 310.168C271.738 291.064 329.27 303.072 259.534 341.281" stroke="#614949" stroke-width="4"/>
<ellipse cx="48.0803" cy="24.9638" rx="48.0803" ry="24.9638" transform="matrix(0.970834 -0.239755 0.269565 0.962982 163.065 353.419)" fill="#E0B888"/>
<path d="M131.135 379.433C132.908 376.991 134.16 376.271 137.385 377.483C140.361 378.444 141.81 378.276 143.636 375.533C145.457 372.603 146.72 371.806 149.886 373.583" stroke="#DD9A4C" stroke-width="3" stroke-linecap="round"/>
<rect x="201.807" y="361.393" width="7.55436" height="7.93332" fill="#C74646"/>
<path d="M201.734 361.469L199.354 363.968C199.317 364.007 199.317 364.067 199.354 364.106L206.77 371.894C206.81 371.936 206.876 371.936 206.915 371.894L209.295 369.395C209.332 369.356 209.332 369.296 209.295 369.257L201.879 361.469C201.839 361.427 201.773 361.427 201.734 361.469Z" fill="#C74646"/>
<rect x="199.288" y="364.037" width="7.55436" height="7.93332" fill="#AD4848"/>
<path d="M199.288 368.004L203.695 369.326L209.361 364.698L213.138 372.327L197.39 377.009L199.288 368.004Z" fill="#E0B888"/>
<path d="M202.436 368.665C203.801 369.295 204.274 368.967 204.954 368.004" stroke="#DD9A4C" stroke-width="3" stroke-linecap="round"/>
<path d="M182.326 375.868C184.247 372.911 185.603 372.038 189.097 373.506C192.321 374.67 193.89 374.466 195.868 371.144C197.841 367.595 199.209 366.63 202.639 368.782" stroke="#DD9A4C" stroke-width="3" stroke-linecap="round"/>
<path d="M204.989 367.935C206.91 364.977 208.266 364.105 211.76 365.573C214.984 366.737 216.553 366.533 218.531 363.211C220.504 359.662 221.872 358.696 225.302 360.849" stroke="#DD9A4C" stroke-width="3" stroke-linecap="round"/>
<rect width="8.18228" height="8.9473" transform="matrix(0.98849 -0.151285 0.126071 0.992021 164.893 345.794)" fill="#9DAB57"/>
<path d="M164.83 345.885L162.626 349.089C162.596 349.132 162.603 349.19 162.643 349.223L171.706 356.735C171.751 356.772 171.818 356.761 171.852 356.712L174.057 353.509C174.086 353.465 174.079 353.407 174.04 353.375L164.976 345.863C164.932 345.826 164.864 345.836 164.83 345.885Z" fill="#9DAB57"/>
<rect width="8.18228" height="8.9473" transform="matrix(0.98849 -0.151285 0.126071 0.992021 162.573 349.165)" fill="#949F58"/>
<path d="M163.228 352.581L167.991 354.074L173.105 348.312L178.2 357.465L161.175 362.754L163.228 352.581Z" fill="#E7C39A"/>
<path d="M156.81 355.702C158.886 352.361 160.352 351.376 164.129 353.033C167.614 354.348 169.311 354.118 171.449 350.365C173.581 346.356 175.06 345.266 178.768 347.697" stroke="#DD9A4C" stroke-width="3" stroke-linecap="round"/>
<rect width="8.01775" height="9.15088" transform="matrix(-0.907917 0.440887 0.516645 0.847777 227.75 338.47)" fill="#F3E69D"/>
<path d="M227.863 338.51L231.666 339.847C231.715 339.865 231.745 339.912 231.734 339.959L229.225 351.064C229.212 351.121 229.148 351.152 229.088 351.131L225.285 349.793C225.235 349.776 225.206 349.728 225.217 349.681L227.726 338.576C227.739 338.52 227.803 338.489 227.863 338.51Z" fill="#F3E69D"/>
<rect width="8.01775" height="9.15088" transform="matrix(-0.907917 0.440887 0.516645 0.847777 231.752 339.878)" fill="#E0D38D"/>
<path d="M233.395 342.986L230.518 346.853L222.755 345.089L224.474 355.291L241.499 350.005L233.395 342.986Z" fill="#E0B888"/>
<path d="M240.528 341.898C236.741 340.379 234.938 340.409 232.958 343.854C230.995 346.862 229.345 348.01 225.247 346.194C220.99 344.169 219.251 343.739 217.818 347.767" stroke="#DD9A4C" stroke-width="3" stroke-linecap="round"/>
<path d="M216.19 334.563C216.982 337.484 213.336 340.877 208.048 342.14C202.761 343.404 197.833 342.059 197.041 339.138C196.25 336.216 199.895 332.824 205.183 331.56C210.471 330.297 215.399 331.641 216.19 334.563Z" fill="url(#paint0_linear_54_368)"/>
<path d="M139.894 363.862C140.836 366.105 138.844 368.946 135.443 370.206C132.043 371.467 128.522 370.67 127.579 368.427C126.637 366.184 128.629 363.343 132.03 362.083C135.43 360.822 138.951 361.618 139.894 363.862Z" fill="url(#paint1_linear_54_368)"/>
<path d="M203.302 354.053C204.279 356.284 202.184 359.207 198.622 360.583C195.06 361.96 191.381 361.267 190.404 359.037C189.427 356.807 191.523 353.883 195.084 352.507C198.646 351.13 202.326 351.823 203.302 354.053Z" fill="url(#paint2_linear_54_368)"/>
<path d="M240.6 352.485C241.362 354.471 239.507 356.917 236.457 357.949C233.407 358.981 230.317 358.208 229.556 356.222C228.794 354.237 230.649 351.791 233.699 350.759C236.749 349.727 239.839 350.5 240.6 352.485Z" fill="url(#paint3_linear_54_368)"/>
<path d="M170.69 364.173C171.881 367.295 169.173 371.062 164.641 372.588C160.109 374.114 155.47 372.82 154.278 369.699C153.087 366.577 155.795 362.81 160.327 361.284C164.859 359.758 169.498 361.051 170.69 364.173Z" fill="url(#paint4_linear_54_368)"/>
<path d="M115.993 380.582C108.438 352.198 213.624 305.256 256.628 341.281" stroke="#D2B18A" stroke-width="2.5" stroke-linecap="round"/>
<path d="M100.302 354.927C116.435 332.447 170.944 293.461 243.843 312.352" stroke="#717171" stroke-width="3.5" stroke-linecap="round"/>
<path fill-rule="evenodd" clip-rule="evenodd" d="M261.682 326.803C265.018 347.278 233.887 371.723 190.265 382.294C146.973 392.785 107.1 385.801 98.6584 366.79L98.5589 366.817L119.25 430.595L280.902 386.045L261.682 326.803Z" fill="#BCB9B9"/>
<path d="M195.978 446.882C258.126 427.405 259.79 365.22 262.151 331.949C262.159 331.843 262.316 331.839 262.351 331.941L282.265 390.831C282.27 390.847 282.271 390.865 282.267 390.882C272.304 434.825 227.276 443.972 195.999 447.08C195.877 447.092 195.861 446.918 195.978 446.882Z" fill="#939393"/>
<path d="M157.835 385.494C147.323 386.748 141.586 386.792 131.684 385.494C134.008 410.385 143.113 437.713 147.374 448.266L173.526 450.45C165.157 427.743 159.578 397.685 157.835 385.494Z" fill="#CECDCD"/>
<path d="M177.113 383.851C172.658 385.693 170.136 386.049 165.589 385.269C170.139 410.422 178.021 437.683 181.394 448.17L193.228 448.969C186.324 426.361 179.608 396.137 177.113 383.851Z" fill="#D5D5D5"/>
<path d="M99.7212 369.665C99.7212 369.665 105.649 383.576 120.061 429.708C134.473 475.839 300.213 436.804 279.874 385.494" stroke="#6A6A6A" stroke-width="5" stroke-linecap="round"/>
<path d="M129.359 385.494C161.903 390.953 261.277 378.399 261.277 327.635" stroke="#717171" stroke-width="3.5" stroke-linecap="round"/>
<path d="M112.666 272.834C110.697 269.325 96.1548 254.645 102.666 251.834C124.666 242.334 121.032 272.834 112.666 272.834Z" fill="#E1C69D" fill-opacity="0.49"/>
<path d="M151.645 299.381C135.645 292.381 153.202 281.881 156.038 275.381C161.944 261.847 163.645 292.881 151.645 299.381Z" fill="#E1C69D" fill-opacity="0.49"/>
<path d="M105.057 325.943C96.5572 320.943 100.721 308.443 103.557 301.943C109.463 288.409 113.424 325.943 105.057 325.943Z" fill="#E1C69D" fill-opacity="0.49"/>
<path d="M478.96 87.14C478.04 87.14 477.213 86.98 476.48 86.66C475.76 86.3267 475.193 85.8733 474.78 85.3C474.367 84.7133 474.153 84.04 474.14 83.28H476.08C476.147 83.9333 476.413 84.4867 476.88 84.94C477.36 85.38 478.053 85.6 478.96 85.6C479.827 85.6 480.507 85.3867 481 84.96C481.507 84.52 481.76 83.96 481.76 83.28C481.76 82.7467 481.613 82.3133 481.32 81.98C481.027 81.6467 480.66 81.3933 480.22 81.22C479.78 81.0467 479.187 80.86 478.44 80.66C477.52 80.42 476.78 80.18 476.22 79.94C475.673 79.7 475.2 79.3267 474.8 78.82C474.413 78.3 474.22 77.6067 474.22 76.74C474.22 75.98 474.413 75.3067 474.8 74.72C475.187 74.1333 475.727 73.68 476.42 73.36C477.127 73.04 477.933 72.88 478.84 72.88C480.147 72.88 481.213 73.2067 482.04 73.86C482.88 74.5133 483.353 75.38 483.46 76.46H481.46C481.393 75.9267 481.113 75.46 480.62 75.06C480.127 74.6467 479.473 74.44 478.66 74.44C477.9 74.44 477.28 74.64 476.8 75.04C476.32 75.4267 476.08 75.9733 476.08 76.68C476.08 77.1867 476.22 77.6 476.5 77.92C476.793 78.24 477.147 78.4867 477.56 78.66C477.987 78.82 478.58 79.0067 479.34 79.22C480.26 79.4733 481 79.7267 481.56 79.98C482.12 80.22 482.6 80.6 483 81.12C483.4 81.6267 483.6 82.32 483.6 83.2C483.6 83.88 483.42 84.52 483.06 85.12C482.7 85.72 482.167 86.2067 481.46 86.58C480.753 86.9533 479.92 87.14 478.96 87.14ZM491.058 87.18C490.032 87.18 489.098 86.9467 488.258 86.48C487.432 86.0133 486.778 85.3533 486.298 84.5C485.832 83.6333 485.598 82.6333 485.598 81.5C485.598 80.38 485.838 79.3933 486.318 78.54C486.812 77.6733 487.478 77.0133 488.318 76.56C489.158 76.0933 490.098 75.86 491.138 75.86C492.178 75.86 493.118 76.0933 493.958 76.56C494.798 77.0133 495.458 77.6667 495.938 78.52C496.432 79.3733 496.678 80.3667 496.678 81.5C496.678 82.6333 496.425 83.6333 495.918 84.5C495.425 85.3533 494.752 86.0133 493.898 86.48C493.045 86.9467 492.098 87.18 491.058 87.18ZM491.058 85.58C491.712 85.58 492.325 85.4267 492.898 85.12C493.472 84.8133 493.932 84.3533 494.278 83.74C494.638 83.1267 494.818 82.38 494.818 81.5C494.818 80.62 494.645 79.8733 494.298 79.26C493.952 78.6467 493.498 78.1933 492.938 77.9C492.378 77.5933 491.772 77.44 491.118 77.44C490.452 77.44 489.838 77.5933 489.278 77.9C488.732 78.1933 488.292 78.6467 487.958 79.26C487.625 79.8733 487.458 80.62 487.458 81.5C487.458 82.3933 487.618 83.1467 487.938 83.76C488.272 84.3733 488.712 84.8333 489.258 85.14C489.805 85.4333 490.405 85.58 491.058 85.58ZM512.251 75.84C513.105 75.84 513.865 76.02 514.531 76.38C515.198 76.7267 515.725 77.2533 516.111 77.96C516.498 78.6667 516.691 79.5267 516.691 80.54V87H514.891V80.8C514.891 79.7067 514.618 78.8733 514.071 78.3C513.538 77.7133 512.811 77.42 511.891 77.42C510.945 77.42 510.191 77.7267 509.631 78.34C509.071 78.94 508.791 79.8133 508.791 80.96V87H506.991V80.8C506.991 79.7067 506.718 78.8733 506.171 78.3C505.638 77.7133 504.911 77.42 503.991 77.42C503.045 77.42 502.291 77.7267 501.731 78.34C501.171 78.94 500.891 79.8133 500.891 80.96V87H499.071V76.04H500.891V77.62C501.251 77.0467 501.731 76.6067 502.331 76.3C502.945 75.9933 503.618 75.84 504.351 75.84C505.271 75.84 506.085 76.0467 506.791 76.46C507.498 76.8733 508.025 77.48 508.371 78.28C508.678 77.5067 509.185 76.9067 509.891 76.48C510.598 76.0533 511.385 75.84 512.251 75.84ZM529.677 81.1C529.677 81.4467 529.657 81.8133 529.617 82.2H520.857C520.923 83.28 521.29 84.1267 521.957 84.74C522.637 85.34 523.457 85.64 524.417 85.64C525.203 85.64 525.857 85.46 526.377 85.1C526.91 84.7267 527.283 84.2333 527.497 83.62H529.457C529.163 84.6733 528.577 85.5333 527.697 86.2C526.817 86.8533 525.723 87.18 524.417 87.18C523.377 87.18 522.443 86.9467 521.617 86.48C520.803 86.0133 520.163 85.3533 519.697 84.5C519.23 83.6333 518.997 82.6333 518.997 81.5C518.997 80.3667 519.223 79.3733 519.677 78.52C520.13 77.6667 520.763 77.0133 521.577 76.56C522.403 76.0933 523.35 75.86 524.417 75.86C525.457 75.86 526.377 76.0867 527.177 76.54C527.977 76.9933 528.59 77.62 529.017 78.42C529.457 79.2067 529.677 80.1 529.677 81.1ZM527.797 80.72C527.797 80.0267 527.643 79.4333 527.337 78.94C527.03 78.4333 526.61 78.0533 526.077 77.8C525.557 77.5333 524.977 77.4 524.337 77.4C523.417 77.4 522.63 77.6933 521.977 78.28C521.337 78.8667 520.97 79.68 520.877 80.72H527.797ZM541.291 87.18C540.451 87.18 539.698 87.04 539.031 86.76C538.364 86.4667 537.838 86.0667 537.451 85.56C537.064 85.04 536.851 84.4467 536.811 83.78H538.691C538.744 84.3267 538.998 84.7733 539.451 85.12C539.918 85.4667 540.524 85.64 541.271 85.64C541.964 85.64 542.511 85.4867 542.911 85.18C543.311 84.8733 543.511 84.4867 543.511 84.02C543.511 83.54 543.298 83.1867 542.871 82.96C542.444 82.72 541.784 82.4867 540.891 82.26C540.078 82.0467 539.411 81.8333 538.891 81.62C538.384 81.3933 537.944 81.0667 537.571 80.64C537.211 80.2 537.031 79.6267 537.031 78.92C537.031 78.36 537.198 77.8467 537.531 77.38C537.864 76.9133 538.338 76.5467 538.951 76.28C539.564 76 540.264 75.86 541.051 75.86C542.264 75.86 543.244 76.1667 543.991 76.78C544.738 77.3933 545.138 78.2333 545.191 79.3H543.371C543.331 78.7267 543.098 78.2667 542.671 77.92C542.258 77.5733 541.698 77.4 540.991 77.4C540.338 77.4 539.818 77.54 539.431 77.82C539.044 78.1 538.851 78.4667 538.851 78.92C538.851 79.28 538.964 79.58 539.191 79.82C539.431 80.0467 539.724 80.2333 540.071 80.38C540.431 80.5133 540.924 80.6667 541.551 80.84C542.338 81.0533 542.978 81.2667 543.471 81.48C543.964 81.68 544.384 81.9867 544.731 82.4C545.091 82.8133 545.278 83.3533 545.291 84.02C545.291 84.62 545.124 85.16 544.791 85.64C544.458 86.12 543.984 86.5 543.371 86.78C542.771 87.0467 542.078 87.18 541.291 87.18ZM548.8 74.26C548.454 74.26 548.16 74.14 547.92 73.9C547.68 73.66 547.56 73.3667 547.56 73.02C547.56 72.6733 547.68 72.38 547.92 72.14C548.16 71.9 548.454 71.78 548.8 71.78C549.134 71.78 549.414 71.9 549.64 72.14C549.88 72.38 550 72.6733 550 73.02C550 73.3667 549.88 73.66 549.64 73.9C549.414 74.14 549.134 74.26 548.8 74.26ZM549.68 76.04V87H547.86V76.04H549.68ZM565.962 75.84C566.816 75.84 567.576 76.02 568.242 76.38C568.909 76.7267 569.436 77.2533 569.822 77.96C570.209 78.6667 570.402 79.5267 570.402 80.54V87H568.602V80.8C568.602 79.7067 568.329 78.8733 567.782 78.3C567.249 77.7133 566.522 77.42 565.602 77.42C564.656 77.42 563.902 77.7267 563.342 78.34C562.782 78.94 562.502 79.8133 562.502 80.96V87H560.702V80.8C560.702 79.7067 560.429 78.8733 559.882 78.3C559.349 77.7133 558.622 77.42 557.702 77.42C556.756 77.42 556.002 77.7267 555.442 78.34C554.882 78.94 554.602 79.8133 554.602 80.96V87H552.782V76.04H554.602V77.62C554.962 77.0467 555.442 76.6067 556.042 76.3C556.656 75.9933 557.329 75.84 558.062 75.84C558.982 75.84 559.796 76.0467 560.502 76.46C561.209 76.8733 561.736 77.48 562.082 78.28C562.389 77.5067 562.896 76.9067 563.602 76.48C564.309 76.0533 565.096 75.84 565.962 75.84ZM575.208 78.06C575.568 77.4333 576.101 76.9133 576.808 76.5C577.528 76.0733 578.361 75.86 579.308 75.86C580.281 75.86 581.161 76.0933 581.948 76.56C582.748 77.0267 583.374 77.6867 583.828 78.54C584.281 79.38 584.508 80.36 584.508 81.48C584.508 82.5867 584.281 83.5733 583.828 84.44C583.374 85.3067 582.748 85.98 581.948 86.46C581.161 86.94 580.281 87.18 579.308 87.18C578.374 87.18 577.548 86.9733 576.828 86.56C576.121 86.1333 575.581 85.6067 575.208 84.98V92.2H573.388V76.04H575.208V78.06ZM582.648 81.48C582.648 80.6533 582.481 79.9333 582.148 79.32C581.814 78.7067 581.361 78.24 580.788 77.92C580.228 77.6 579.608 77.44 578.928 77.44C578.261 77.44 577.641 77.6067 577.068 77.94C576.508 78.26 576.054 78.7333 575.708 79.36C575.374 79.9733 575.208 80.6867 575.208 81.5C575.208 82.3267 575.374 83.0533 575.708 83.68C576.054 84.2933 576.508 84.7667 577.068 85.1C577.641 85.42 578.261 85.58 578.928 85.58C579.608 85.58 580.228 85.42 580.788 85.1C581.361 84.7667 581.814 84.2933 582.148 83.68C582.481 83.0533 582.648 82.32 582.648 81.48ZM588.723 72.2V87H586.903V72.2H588.723ZM601.825 81.1C601.825 81.4467 601.805 81.8133 601.765 82.2H593.005C593.072 83.28 593.438 84.1267 594.105 84.74C594.785 85.34 595.605 85.64 596.565 85.64C597.352 85.64 598.005 85.46 598.525 85.1C599.058 84.7267 599.432 84.2333 599.645 83.62H601.605C601.312 84.6733 600.725 85.5333 599.845 86.2C598.965 86.8533 597.872 87.18 596.565 87.18C595.525 87.18 594.592 86.9467 593.765 86.48C592.952 86.0133 592.312 85.3533 591.845 84.5C591.378 83.6333 591.145 82.6333 591.145 81.5C591.145 80.3667 591.372 79.3733 591.825 78.52C592.278 77.6667 592.912 77.0133 593.725 76.56C594.552 76.0933 595.498 75.86 596.565 75.86C597.605 75.86 598.525 76.0867 599.325 76.54C600.125 76.9933 600.738 77.62 601.165 78.42C601.605 79.2067 601.825 80.1 601.825 81.1ZM599.945 80.72C599.945 80.0267 599.792 79.4333 599.485 78.94C599.178 78.4333 598.758 78.0533 598.225 77.8C597.705 77.5333 597.125 77.4 596.485 77.4C595.565 77.4 594.778 77.6933 594.125 78.28C593.485 78.8667 593.118 79.68 593.025 80.72H599.945ZM614.08 75.86C615.026 75.86 615.853 76.0667 616.56 76.48C617.28 76.8933 617.813 77.4133 618.16 78.04V76.04H620V87.24C620 88.24 619.786 89.1267 619.36 89.9C618.933 90.6867 618.32 91.3 617.52 91.74C616.733 92.18 615.813 92.4 614.76 92.4C613.32 92.4 612.12 92.06 611.16 91.38C610.2 90.7 609.633 89.7733 609.46 88.6H611.26C611.46 89.2667 611.873 89.8 612.5 90.2C613.126 90.6133 613.88 90.82 614.76 90.82C615.76 90.82 616.573 90.5067 617.2 89.88C617.84 89.2533 618.16 88.3733 618.16 87.24V84.94C617.8 85.58 617.266 86.1133 616.56 86.54C615.853 86.9667 615.026 87.18 614.08 87.18C613.106 87.18 612.22 86.94 611.42 86.46C610.633 85.98 610.013 85.3067 609.56 84.44C609.106 83.5733 608.88 82.5867 608.88 81.48C608.88 80.36 609.106 79.38 609.56 78.54C610.013 77.6867 610.633 77.0267 611.42 76.56C612.22 76.0933 613.106 75.86 614.08 75.86ZM618.16 81.5C618.16 80.6733 617.993 79.9533 617.66 79.34C617.326 78.7267 616.873 78.26 616.3 77.94C615.74 77.6067 615.12 77.44 614.44 77.44C613.76 77.44 613.14 77.6 612.58 77.92C612.02 78.24 611.573 78.7067 611.24 79.32C610.906 79.9333 610.74 80.6533 610.74 81.48C610.74 82.32 610.906 83.0533 611.24 83.68C611.573 84.2933 612.02 84.7667 612.58 85.1C613.14 85.42 613.76 85.58 614.44 85.58C615.12 85.58 615.74 85.42 616.3 85.1C616.873 84.7667 617.326 84.2933 617.66 83.68C617.993 83.0533 618.16 82.3267 618.16 81.5ZM624.895 77.82C625.215 77.1933 625.668 76.7067 626.255 76.36C626.855 76.0133 627.582 75.84 628.435 75.84V77.72H627.955C625.915 77.72 624.895 78.8267 624.895 81.04V87H623.075V76.04H624.895V77.82ZM629.856 81.48C629.856 80.36 630.083 79.38 630.536 78.54C630.989 77.6867 631.609 77.0267 632.396 76.56C633.196 76.0933 634.083 75.86 635.056 75.86C636.016 75.86 636.849 76.0667 637.556 76.48C638.263 76.8933 638.789 77.4133 639.136 78.04V76.04H640.976V87H639.136V84.96C638.776 85.6 638.236 86.1333 637.516 86.56C636.809 86.9733 635.983 87.18 635.036 87.18C634.063 87.18 633.183 86.94 632.396 86.46C631.609 85.98 630.989 85.3067 630.536 84.44C630.083 83.5733 629.856 82.5867 629.856 81.48ZM639.136 81.5C639.136 80.6733 638.969 79.9533 638.636 79.34C638.303 78.7267 637.849 78.26 637.276 77.94C636.716 77.6067 636.096 77.44 635.416 77.44C634.736 77.44 634.116 77.6 633.556 77.92C632.996 78.24 632.549 78.7067 632.216 79.32C631.883 79.9333 631.716 80.6533 631.716 81.48C631.716 82.32 631.883 83.0533 632.216 83.68C632.549 84.2933 632.996 84.7667 633.556 85.1C634.116 85.42 634.736 85.58 635.416 85.58C636.096 85.58 636.716 85.42 637.276 85.1C637.849 84.7667 638.303 84.2933 638.636 83.68C638.969 83.0533 639.136 82.3267 639.136 81.5ZM645.872 78.06C646.232 77.4333 646.765 76.9133 647.472 76.5C648.192 76.0733 649.025 75.86 649.972 75.86C650.945 75.86 651.825 76.0933 652.612 76.56C653.412 77.0267 654.038 77.6867 654.492 78.54C654.945 79.38 655.172 80.36 655.172 81.48C655.172 82.5867 654.945 83.5733 654.492 84.44C654.038 85.3067 653.412 85.98 652.612 86.46C651.825 86.94 650.945 87.18 649.972 87.18C649.038 87.18 648.212 86.9733 647.492 86.56C646.785 86.1333 646.245 85.6067 645.872 84.98V92.2H644.052V76.04H645.872V78.06ZM653.312 81.48C653.312 80.6533 653.145 79.9333 652.812 79.32C652.478 78.7067 652.025 78.24 651.452 77.92C650.892 77.6 650.272 77.44 649.592 77.44C648.925 77.44 648.305 77.6067 647.732 77.94C647.172 78.26 646.718 78.7333 646.372 79.36C646.038 79.9733 645.872 80.6867 645.872 81.5C645.872 82.3267 646.038 83.0533 646.372 83.68C646.718 84.2933 647.172 84.7667 647.732 85.1C648.305 85.42 648.925 85.58 649.592 85.58C650.272 85.58 650.892 85.42 651.452 85.1C652.025 84.7667 652.478 84.2933 652.812 83.68C653.145 83.0533 653.312 82.32 653.312 81.48ZM663.007 75.84C663.834 75.84 664.581 76.02 665.247 76.38C665.914 76.7267 666.434 77.2533 666.807 77.96C667.194 78.6667 667.387 79.5267 667.387 80.54V87H665.587V80.8C665.587 79.7067 665.314 78.8733 664.767 78.3C664.221 77.7133 663.474 77.42 662.527 77.42C661.567 77.42 660.801 77.72 660.227 78.32C659.667 78.92 659.387 79.7933 659.387 80.94V87H657.567V72.2H659.387V77.6C659.747 77.04 660.241 76.6067 660.867 76.3C661.507 75.9933 662.221 75.84 663.007 75.84ZM671.3 74.26C670.954 74.26 670.66 74.14 670.42 73.9C670.18 73.66 670.06 73.3667 670.06 73.02C670.06 72.6733 670.18 72.38 670.42 72.14C670.66 71.9 670.954 71.78 671.3 71.78C671.634 71.78 671.914 71.9 672.14 72.14C672.38 72.38 672.5 72.6733 672.5 73.02C672.5 73.3667 672.38 73.66 672.14 73.9C671.914 74.14 671.634 74.26 671.3 74.26ZM672.18 76.04V87H670.36V76.04H672.18ZM674.602 81.5C674.602 80.3667 674.829 79.38 675.282 78.54C675.736 77.6867 676.362 77.0267 677.162 76.56C677.976 76.0933 678.902 75.86 679.942 75.86C681.289 75.86 682.396 76.1867 683.262 76.84C684.142 77.4933 684.722 78.4 685.002 79.56H683.042C682.856 78.8933 682.489 78.3667 681.942 77.98C681.409 77.5933 680.742 77.4 679.942 77.4C678.902 77.4 678.062 77.76 677.422 78.48C676.782 79.1867 676.462 80.1933 676.462 81.5C676.462 82.82 676.782 83.84 677.422 84.56C678.062 85.28 678.902 85.64 679.942 85.64C680.742 85.64 681.409 85.4533 681.942 85.08C682.476 84.7067 682.842 84.1733 683.042 83.48H685.002C684.709 84.6 684.122 85.5 683.242 86.18C682.362 86.8467 681.262 87.18 679.942 87.18C678.902 87.18 677.976 86.9467 677.162 86.48C676.362 86.0133 675.736 85.3533 675.282 84.5C674.829 83.6467 674.602 82.6467 674.602 81.5ZM691.311 87.18C690.471 87.18 689.717 87.04 689.051 86.76C688.384 86.4667 687.857 86.0667 687.471 85.56C687.084 85.04 686.871 84.4467 686.831 83.78H688.711C688.764 84.3267 689.017 84.7733 689.471 85.12C689.937 85.4667 690.544 85.64 691.291 85.64C691.984 85.64 692.531 85.4867 692.931 85.18C693.331 84.8733 693.531 84.4867 693.531 84.02C693.531 83.54 693.317 83.1867 692.891 82.96C692.464 82.72 691.804 82.4867 690.911 82.26C690.097 82.0467 689.431 81.8333 688.911 81.62C688.404 81.3933 687.964 81.0667 687.591 80.64C687.231 80.2 687.051 79.6267 687.051 78.92C687.051 78.36 687.217 77.8467 687.551 77.38C687.884 76.9133 688.357 76.5467 688.971 76.28C689.584 76 690.284 75.86 691.071 75.86C692.284 75.86 693.264 76.1667 694.011 76.78C694.757 77.3933 695.157 78.2333 695.211 79.3H693.391C693.351 78.7267 693.117 78.2667 692.691 77.92C692.277 77.5733 691.717 77.4 691.011 77.4C690.357 77.4 689.837 77.54 689.451 77.82C689.064 78.1 688.871 78.4667 688.871 78.92C688.871 79.28 688.984 79.58 689.211 79.82C689.451 80.0467 689.744 80.2333 690.091 80.38C690.451 80.5133 690.944 80.6667 691.571 80.84C692.357 81.0533 692.997 81.2667 693.491 81.48C693.984 81.68 694.404 81.9867 694.751 82.4C695.111 82.8133 695.297 83.3533 695.311 84.02C695.311 84.62 695.144 85.16 694.811 85.64C694.477 86.12 694.004 86.5 693.391 86.78C692.791 87.0467 692.097 87.18 691.311 87.18ZM716.392 75.84C717.245 75.84 718.005 76.02 718.672 76.38C719.339 76.7267 719.865 77.2533 720.252 77.96C720.639 78.6667 720.832 79.5267 720.832 80.54V87H719.032V80.8C719.032 79.7067 718.759 78.8733 718.212 78.3C717.679 77.7133 716.952 77.42 716.032 77.42C715.085 77.42 714.332 77.7267 713.772 78.34C713.212 78.94 712.932 79.8133 712.932 80.96V87H711.132V80.8C711.132 79.7067 710.859 78.8733 710.312 78.3C709.779 77.7133 709.052 77.42 708.132 77.42C707.185 77.42 706.432 77.7267 705.872 78.34C705.312 78.94 705.032 79.8133 705.032 80.96V87H703.212V76.04H705.032V77.62C705.392 77.0467 705.872 76.6067 706.472 76.3C707.085 75.9933 707.759 75.84 708.492 75.84C709.412 75.84 710.225 76.0467 710.932 76.46C711.639 76.8733 712.165 77.48 712.512 78.28C712.819 77.5067 713.325 76.9067 714.032 76.48C714.739 76.0533 715.525 75.84 716.392 75.84ZM723.137 81.48C723.137 80.36 723.364 79.38 723.817 78.54C724.271 77.6867 724.891 77.0267 725.677 76.56C726.477 76.0933 727.364 75.86 728.337 75.86C729.297 75.86 730.131 76.0667 730.837 76.48C731.544 76.8933 732.071 77.4133 732.417 78.04V76.04H734.257V87H732.417V84.96C732.057 85.6 731.517 86.1333 730.797 86.56C730.091 86.9733 729.264 87.18 728.317 87.18C727.344 87.18 726.464 86.94 725.677 86.46C724.891 85.98 724.271 85.3067 723.817 84.44C723.364 83.5733 723.137 82.5867 723.137 81.48ZM732.417 81.5C732.417 80.6733 732.251 79.9533 731.917 79.34C731.584 78.7267 731.131 78.26 730.557 77.94C729.997 77.6067 729.377 77.44 728.697 77.44C728.017 77.44 727.397 77.6 726.837 77.92C726.277 78.24 725.831 78.7067 725.497 79.32C725.164 79.9333 724.997 80.6533 724.997 81.48C724.997 82.32 725.164 83.0533 725.497 83.68C725.831 84.2933 726.277 84.7667 726.837 85.1C727.397 85.42 728.017 85.58 728.697 85.58C729.377 85.58 729.997 85.42 730.557 85.1C731.131 84.7667 731.584 84.2933 731.917 83.68C732.251 83.0533 732.417 82.3267 732.417 81.5ZM736.653 81.48C736.653 80.36 736.88 79.38 737.333 78.54C737.786 77.6867 738.406 77.0267 739.193 76.56C739.993 76.0933 740.886 75.86 741.873 75.86C742.726 75.86 743.52 76.06 744.253 76.46C744.986 76.8467 745.546 77.36 745.933 78V72.2H747.773V87H745.933V84.94C745.573 85.5933 745.04 86.1333 744.333 86.56C743.626 86.9733 742.8 87.18 741.853 87.18C740.88 87.18 739.993 86.94 739.193 86.46C738.406 85.98 737.786 85.3067 737.333 84.44C736.88 83.5733 736.653 82.5867 736.653 81.48ZM745.933 81.5C745.933 80.6733 745.766 79.9533 745.433 79.34C745.1 78.7267 744.646 78.26 744.073 77.94C743.513 77.6067 742.893 77.44 742.213 77.44C741.533 77.44 740.913 77.6 740.353 77.92C739.793 78.24 739.346 78.7067 739.013 79.32C738.68 79.9333 738.513 80.6533 738.513 81.48C738.513 82.32 738.68 83.0533 739.013 83.68C739.346 84.2933 739.793 84.7667 740.353 85.1C740.913 85.42 741.533 85.58 742.213 85.58C742.893 85.58 743.513 85.42 744.073 85.1C744.646 84.7667 745.1 84.2933 745.433 83.68C745.766 83.0533 745.933 82.3267 745.933 81.5ZM760.849 81.1C760.849 81.4467 760.829 81.8133 760.789 82.2H752.029C752.095 83.28 752.462 84.1267 753.129 84.74C753.809 85.34 754.629 85.64 755.589 85.64C756.375 85.64 757.029 85.46 757.549 85.1C758.082 84.7267 758.455 84.2333 758.669 83.62H760.629C760.335 84.6733 759.749 85.5333 758.869 86.2C757.989 86.8533 756.895 87.18 755.589 87.18C754.549 87.18 753.615 86.9467 752.789 86.48C751.975 86.0133 751.335 85.3533 750.869 84.5C750.402 83.6333 750.169 82.6333 750.169 81.5C750.169 80.3667 750.395 79.3733 750.849 78.52C751.302 77.6667 751.935 77.0133 752.749 76.56C753.575 76.0933 754.522 75.86 755.589 75.86C756.629 75.86 757.549 76.0867 758.349 76.54C759.149 76.9933 759.762 77.62 760.189 78.42C760.629 79.2067 760.849 80.1 760.849 81.1ZM758.969 80.72C758.969 80.0267 758.815 79.4333 758.509 78.94C758.202 78.4333 757.782 78.0533 757.249 77.8C756.729 77.5333 756.149 77.4 755.509 77.4C754.589 77.4 753.802 77.6933 753.149 78.28C752.509 78.8667 752.142 79.68 752.049 80.72H758.969ZM479 107.54H476.7V117H474.88V107.54H473.46V106.04H474.88V105.26C474.88 104.033 475.193 103.14 475.82 102.58C476.46 102.007 477.48 101.72 478.88 101.72V103.24C478.08 103.24 477.513 103.4 477.18 103.72C476.86 104.027 476.7 104.54 476.7 105.26V106.04H479V107.54ZM485.902 117.18C484.875 117.18 483.942 116.947 483.102 116.48C482.275 116.013 481.622 115.353 481.142 114.5C480.675 113.633 480.442 112.633 480.442 111.5C480.442 110.38 480.682 109.393 481.162 108.54C481.655 107.673 482.322 107.013 483.162 106.56C484.002 106.093 484.942 105.86 485.982 105.86C487.022 105.86 487.962 106.093 488.802 106.56C489.642 107.013 490.302 107.667 490.782 108.52C491.275 109.373 491.522 110.367 491.522 111.5C491.522 112.633 491.269 113.633 490.762 114.5C490.269 115.353 489.595 116.013 488.742 116.48C487.889 116.947 486.942 117.18 485.902 117.18ZM485.902 115.58C486.555 115.58 487.169 115.427 487.742 115.12C488.315 114.813 488.775 114.353 489.122 113.74C489.482 113.127 489.662 112.38 489.662 111.5C489.662 110.62 489.489 109.873 489.142 109.26C488.795 108.647 488.342 108.193 487.782 107.9C487.222 107.593 486.615 107.44 485.962 107.44C485.295 107.44 484.682 107.593 484.122 107.9C483.575 108.193 483.135 108.647 482.802 109.26C482.469 109.873 482.302 110.62 482.302 111.5C482.302 112.393 482.462 113.147 482.782 113.76C483.115 114.373 483.555 114.833 484.102 115.14C484.649 115.433 485.249 115.58 485.902 115.58ZM495.735 107.82C496.055 107.193 496.508 106.707 497.095 106.36C497.695 106.013 498.422 105.84 499.275 105.84V107.72H498.795C496.755 107.72 495.735 108.827 495.735 111.04V117H493.915V106.04H495.735V107.82ZM506.028 111.48C506.028 110.36 506.255 109.38 506.708 108.54C507.161 107.687 507.781 107.027 508.568 106.56C509.368 106.093 510.255 105.86 511.228 105.86C512.188 105.86 513.021 106.067 513.728 106.48C514.435 106.893 514.961 107.413 515.308 108.04V106.04H517.148V117H515.308V114.96C514.948 115.6 514.408 116.133 513.688 116.56C512.981 116.973 512.155 117.18 511.208 117.18C510.235 117.18 509.355 116.94 508.568 116.46C507.781 115.98 507.161 115.307 506.708 114.44C506.255 113.573 506.028 112.587 506.028 111.48ZM515.308 111.5C515.308 110.673 515.141 109.953 514.808 109.34C514.475 108.727 514.021 108.26 513.448 107.94C512.888 107.607 512.268 107.44 511.588 107.44C510.908 107.44 510.288 107.6 509.728 107.92C509.168 108.24 508.721 108.707 508.388 109.32C508.055 109.933 507.888 110.653 507.888 111.48C507.888 112.32 508.055 113.053 508.388 113.68C508.721 114.293 509.168 114.767 509.728 115.1C510.288 115.42 510.908 115.58 511.588 115.58C512.268 115.58 512.888 115.42 513.448 115.1C514.021 114.767 514.475 114.293 514.808 113.68C515.141 113.053 515.308 112.327 515.308 111.5ZM524.876 111.5C524.876 110.367 525.102 109.38 525.556 108.54C526.009 107.687 526.636 107.027 527.436 106.56C528.249 106.093 529.176 105.86 530.216 105.86C531.562 105.86 532.669 106.187 533.536 106.84C534.416 107.493 534.996 108.4 535.276 109.56H533.316C533.129 108.893 532.762 108.367 532.216 107.98C531.682 107.593 531.016 107.4 530.216 107.4C529.176 107.4 528.336 107.76 527.696 108.48C527.056 109.187 526.736 110.193 526.736 111.5C526.736 112.82 527.056 113.84 527.696 114.56C528.336 115.28 529.176 115.64 530.216 115.64C531.016 115.64 531.682 115.453 532.216 115.08C532.749 114.707 533.116 114.173 533.316 113.48H535.276C534.982 114.6 534.396 115.5 533.516 116.18C532.636 116.847 531.536 117.18 530.216 117.18C529.176 117.18 528.249 116.947 527.436 116.48C526.636 116.013 526.009 115.353 525.556 114.5C525.102 113.647 524.876 112.647 524.876 111.5ZM542.484 117.18C541.457 117.18 540.524 116.947 539.684 116.48C538.857 116.013 538.204 115.353 537.724 114.5C537.257 113.633 537.024 112.633 537.024 111.5C537.024 110.38 537.264 109.393 537.744 108.54C538.237 107.673 538.904 107.013 539.744 106.56C540.584 106.093 541.524 105.86 542.564 105.86C543.604 105.86 544.544 106.093 545.384 106.56C546.224 107.013 546.884 107.667 547.364 108.52C547.857 109.373 548.104 110.367 548.104 111.5C548.104 112.633 547.851 113.633 547.344 114.5C546.851 115.353 546.177 116.013 545.324 116.48C544.471 116.947 543.524 117.18 542.484 117.18ZM542.484 115.58C543.137 115.58 543.751 115.427 544.324 115.12C544.897 114.813 545.357 114.353 545.704 113.74C546.064 113.127 546.244 112.38 546.244 111.5C546.244 110.62 546.071 109.873 545.724 109.26C545.377 108.647 544.924 108.193 544.364 107.9C543.804 107.593 543.197 107.44 542.544 107.44C541.877 107.44 541.264 107.593 540.704 107.9C540.157 108.193 539.717 108.647 539.384 109.26C539.051 109.873 538.884 110.62 538.884 111.5C538.884 112.393 539.044 113.147 539.364 113.76C539.697 114.373 540.137 114.833 540.684 115.14C541.231 115.433 541.831 115.58 542.484 115.58ZM555.277 117.18C554.25 117.18 553.317 116.947 552.477 116.48C551.65 116.013 550.997 115.353 550.517 114.5C550.05 113.633 549.817 112.633 549.817 111.5C549.817 110.38 550.057 109.393 550.537 108.54C551.03 107.673 551.697 107.013 552.537 106.56C553.377 106.093 554.317 105.86 555.357 105.86C556.397 105.86 557.337 106.093 558.177 106.56C559.017 107.013 559.677 107.667 560.157 108.52C560.65 109.373 560.897 110.367 560.897 111.5C560.897 112.633 560.644 113.633 560.137 114.5C559.644 115.353 558.97 116.013 558.117 116.48C557.264 116.947 556.317 117.18 555.277 117.18ZM555.277 115.58C555.93 115.58 556.544 115.427 557.117 115.12C557.69 114.813 558.15 114.353 558.497 113.74C558.857 113.127 559.037 112.38 559.037 111.5C559.037 110.62 558.864 109.873 558.517 109.26C558.17 108.647 557.717 108.193 557.157 107.9C556.597 107.593 555.99 107.44 555.337 107.44C554.67 107.44 554.057 107.593 553.497 107.9C552.95 108.193 552.51 108.647 552.177 109.26C551.844 109.873 551.677 110.62 551.677 111.5C551.677 112.393 551.837 113.147 552.157 113.76C552.49 114.373 552.93 114.833 553.477 115.14C554.024 115.433 554.624 115.58 555.277 115.58ZM569.41 117L565.11 112.16V117H563.29V102.2H565.11V110.9L569.33 106.04H571.87L566.71 111.5L571.89 117H569.41ZM574.523 104.26C574.176 104.26 573.883 104.14 573.643 103.9C573.403 103.66 573.283 103.367 573.283 103.02C573.283 102.673 573.403 102.38 573.643 102.14C573.883 101.9 574.176 101.78 574.523 101.78C574.856 101.78 575.136 101.9 575.363 102.14C575.603 102.38 575.723 102.673 575.723 103.02C575.723 103.367 575.603 103.66 575.363 103.9C575.136 104.14 574.856 104.26 574.523 104.26ZM575.403 106.04V117H573.583V106.04H575.403ZM583.845 105.84C585.178 105.84 586.258 106.247 587.085 107.06C587.912 107.86 588.325 109.02 588.325 110.54V117H586.525V110.8C586.525 109.707 586.252 108.873 585.705 108.3C585.158 107.713 584.412 107.42 583.465 107.42C582.505 107.42 581.738 107.72 581.165 108.32C580.605 108.92 580.325 109.793 580.325 110.94V117H578.505V106.04H580.325V107.6C580.685 107.04 581.172 106.607 581.785 106.3C582.412 105.993 583.098 105.84 583.845 105.84ZM595.818 105.86C596.764 105.86 597.591 106.067 598.298 106.48C599.018 106.893 599.551 107.413 599.898 108.04V106.04H601.738V117.24C601.738 118.24 601.524 119.127 601.098 119.9C600.671 120.687 600.058 121.3 599.258 121.74C598.471 122.18 597.551 122.4 596.498 122.4C595.058 122.4 593.858 122.06 592.898 121.38C591.938 120.7 591.371 119.773 591.198 118.6H592.998C593.198 119.267 593.611 119.8 594.238 120.2C594.864 120.613 595.618 120.82 596.498 120.82C597.498 120.82 598.311 120.507 598.938 119.88C599.578 119.253 599.898 118.373 599.898 117.24V114.94C599.538 115.58 599.004 116.113 598.298 116.54C597.591 116.967 596.764 117.18 595.818 117.18C594.844 117.18 593.958 116.94 593.158 116.46C592.371 115.98 591.751 115.307 591.298 114.44C590.844 113.573 590.618 112.587 590.618 111.48C590.618 110.36 590.844 109.38 591.298 108.54C591.751 107.687 592.371 107.027 593.158 106.56C593.958 106.093 594.844 105.86 595.818 105.86ZM599.898 111.5C599.898 110.673 599.731 109.953 599.398 109.34C599.064 108.727 598.611 108.26 598.038 107.94C597.478 107.607 596.858 107.44 596.178 107.44C595.498 107.44 594.878 107.6 594.318 107.92C593.758 108.24 593.311 108.707 592.978 109.32C592.644 109.933 592.478 110.653 592.478 111.48C592.478 112.32 592.644 113.053 592.978 113.68C593.311 114.293 593.758 114.767 594.318 115.1C594.878 115.42 595.498 115.58 596.178 115.58C596.858 115.58 597.478 115.42 598.038 115.1C598.611 114.767 599.064 114.293 599.398 113.68C599.731 113.053 599.898 112.327 599.898 111.5ZM611.965 108.08C612.339 107.427 612.885 106.893 613.605 106.48C614.325 106.067 615.145 105.86 616.065 105.86C617.052 105.86 617.939 106.093 618.725 106.56C619.512 107.027 620.132 107.687 620.585 108.54C621.039 109.38 621.265 110.36 621.265 111.48C621.265 112.587 621.039 113.573 620.585 114.44C620.132 115.307 619.505 115.98 618.705 116.46C617.919 116.94 617.039 117.18 616.065 117.18C615.119 117.18 614.285 116.973 613.565 116.56C612.859 116.147 612.325 115.62 611.965 114.98V117H610.145V102.2H611.965V108.08ZM619.405 111.48C619.405 110.653 619.239 109.933 618.905 109.32C618.572 108.707 618.119 108.24 617.545 107.92C616.985 107.6 616.365 107.44 615.685 107.44C615.019 107.44 614.399 107.607 613.825 107.94C613.265 108.26 612.812 108.733 612.465 109.36C612.132 109.973 611.965 110.687 611.965 111.5C611.965 112.327 612.132 113.053 612.465 113.68C612.812 114.293 613.265 114.767 613.825 115.1C614.399 115.42 615.019 115.58 615.685 115.58C616.365 115.58 616.985 115.42 617.545 115.1C618.119 114.767 618.572 114.293 618.905 113.68C619.239 113.053 619.405 112.32 619.405 111.48ZM625.481 102.2V117H623.661V102.2H625.481ZM633.363 117.18C632.336 117.18 631.403 116.947 630.563 116.48C629.736 116.013 629.083 115.353 628.603 114.5C628.136 113.633 627.903 112.633 627.903 111.5C627.903 110.38 628.143 109.393 628.623 108.54C629.116 107.673 629.783 107.013 630.623 106.56C631.463 106.093 632.403 105.86 633.443 105.86C634.483 105.86 635.423 106.093 636.263 106.56C637.103 107.013 637.763 107.667 638.243 108.52C638.736 109.373 638.983 110.367 638.983 111.5C638.983 112.633 638.73 113.633 638.223 114.5C637.73 115.353 637.056 116.013 636.203 116.48C635.35 116.947 634.403 117.18 633.363 117.18ZM633.363 115.58C634.016 115.58 634.63 115.427 635.203 115.12C635.776 114.813 636.236 114.353 636.583 113.74C636.943 113.127 637.123 112.38 637.123 111.5C637.123 110.62 636.95 109.873 636.603 109.26C636.256 108.647 635.803 108.193 635.243 107.9C634.683 107.593 634.076 107.44 633.423 107.44C632.756 107.44 632.143 107.593 631.583 107.9C631.036 108.193 630.596 108.647 630.263 109.26C629.93 109.873 629.763 110.62 629.763 111.5C629.763 112.393 629.923 113.147 630.243 113.76C630.576 114.373 631.016 114.833 631.563 115.14C632.11 115.433 632.71 115.58 633.363 115.58ZM645.896 105.86C646.843 105.86 647.669 106.067 648.376 106.48C649.096 106.893 649.629 107.413 649.976 108.04V106.04H651.816V117.24C651.816 118.24 651.603 119.127 651.176 119.9C650.749 120.687 650.136 121.3 649.336 121.74C648.549 122.18 647.629 122.4 646.576 122.4C645.136 122.4 643.936 122.06 642.976 121.38C642.016 120.7 641.449 119.773 641.276 118.6H643.076C643.276 119.267 643.689 119.8 644.316 120.2C644.943 120.613 645.696 120.82 646.576 120.82C647.576 120.82 648.389 120.507 649.016 119.88C649.656 119.253 649.976 118.373 649.976 117.24V114.94C649.616 115.58 649.083 116.113 648.376 116.54C647.669 116.967 646.843 117.18 645.896 117.18C644.923 117.18 644.036 116.94 643.236 116.46C642.449 115.98 641.829 115.307 641.376 114.44C640.923 113.573 640.696 112.587 640.696 111.48C640.696 110.36 640.923 109.38 641.376 108.54C641.829 107.687 642.449 107.027 643.236 106.56C644.036 106.093 644.923 105.86 645.896 105.86ZM649.976 111.5C649.976 110.673 649.809 109.953 649.476 109.34C649.143 108.727 648.689 108.26 648.116 107.94C647.556 107.607 646.936 107.44 646.256 107.44C645.576 107.44 644.956 107.6 644.396 107.92C643.836 108.24 643.389 108.707 643.056 109.32C642.723 109.933 642.556 110.653 642.556 111.48C642.556 112.32 642.723 113.053 643.056 113.68C643.389 114.293 643.836 114.767 644.396 115.1C644.956 115.42 645.576 115.58 646.256 115.58C646.936 115.58 647.556 115.42 648.116 115.1C648.689 114.767 649.143 114.293 649.476 113.68C649.809 113.053 649.976 112.327 649.976 111.5ZM655.472 117.12C655.125 117.12 654.832 117 654.592 116.76C654.352 116.52 654.232 116.227 654.232 115.88C654.232 115.533 654.352 115.24 654.592 115C654.832 114.76 655.125 114.64 655.472 114.64C655.805 114.64 656.085 114.76 656.312 115C656.552 115.24 656.672 115.533 656.672 115.88C656.672 116.227 656.552 116.52 656.312 116.76C656.085 117 655.805 117.12 655.472 117.12Z" fill="black"/>
<defs>
<linearGradient id="paint0_linear_54_368" x1="202.745" y1="331.965" x2="205.29" y2="342.622" gradientUnits="userSpaceOnUse">
<stop stop-color="#D37F00"/>
<stop offset="1" stop-color="#E68A00" stop-opacity="0"/>
<stop offset="1" stop-color="#E1C69D"/>
</linearGradient>
<linearGradient id="paint1_linear_54_368" x1="130.437" y1="362.525" x2="133.497" y2="370.78" gradientUnits="userSpaceOnUse">
<stop stop-color="#D37F00"/>
<stop offset="1" stop-color="#E68A00" stop-opacity="0"/>
<stop offset="1" stop-color="#E1C69D"/>
</linearGradient>
<linearGradient id="paint2_linear_54_368" x1="193.416" y1="353.002" x2="196.591" y2="361.219" gradientUnits="userSpaceOnUse">
<stop stop-color="#AE6900"/>
<stop offset="1" stop-color="#E68A00" stop-opacity="0"/>
<stop offset="1" stop-color="#E1C69D"/>
</linearGradient>
<linearGradient id="paint3_linear_54_368" x1="232.275" y1="351.113" x2="234.741" y2="358.401" gradientUnits="userSpaceOnUse">
<stop stop-color="#AE6900"/>
<stop offset="1" stop-color="#E68A00" stop-opacity="0"/>
<stop offset="1" stop-color="#E1C69D"/>
</linearGradient>
<linearGradient id="paint4_linear_54_368" x1="158.208" y1="361.796" x2="162.065" y2="373.254" gradientUnits="userSpaceOnUse">
<stop stop-color="#D37F00"/>
<stop offset="1" stop-color="#E68A00" stop-opacity="0"/>
<stop offset="1" stop-color="#E1C69D"/>
</linearGradient>
</defs>
</svg>
