<!--?xml version="1.0" standalone="no"?-->
              <svg id="sw-js-blob-svg" viewBox="0 0 100 100" xmlns="http://www.w3.org/2000/svg" version="1.1">
                    <defs> 
                        <linearGradient id="sw-gradient" x1="0" x2="1" y1="1" y2="0">
                            <stop id="stop1" stop-color="rgba(79, 119, 45, 1)" offset="0%"></stop>
                            <stop id="stop2" stop-color="rgba(144, 169, 85, 1)" offset="100%"></stop>
                        </linearGradient>
                    </defs>
                <path fill="url(#sw-gradient)" d="M20.9,-35.5C25.7,-33.5,27.1,-25,31,-18C34.9,-11,41.2,-5.5,39.8,-0.8C38.4,3.8,29.2,7.7,22.5,9.9C15.8,12,11.6,12.5,8.3,15.7C5,18.9,2.5,24.8,-1.8,27.9C-6.1,31,-12.1,31.3,-14.6,27.6C-17.1,23.9,-16,16.3,-20.6,11C-25.1,5.7,-35.3,2.9,-35.7,-0.3C-36.2,-3.4,-26.9,-6.8,-22.3,-12C-17.7,-17.2,-17.9,-24.2,-14.9,-27.3C-12,-30.5,-6,-29.7,1,-31.5C8.1,-33.3,16.1,-37.6,20.9,-35.5Z" width="100%" height="100%" transform="translate(50 50)" stroke-width="0" style="transition: all 0.3s ease 0s;" stroke="url(#sw-gradient)"></path>
              </svg>